<?xml version="1.0" encoding="UTF-8" standalone="no"?>
<!-- Created with Inkscape (http://www.inkscape.org/) -->

<svg
   xmlns:dc="http://purl.org/dc/elements/1.1/"
   xmlns:cc="http://creativecommons.org/ns#"
   xmlns:rdf="http://www.w3.org/1999/02/22-rdf-syntax-ns#"
   xmlns:svg="http://www.w3.org/2000/svg"
   xmlns="http://www.w3.org/2000/svg"
   xmlns:sodipodi="http://sodipodi.sourceforge.net/DTD/sodipodi-0.dtd"
   xmlns:inkscape="http://www.inkscape.org/namespaces/inkscape"
   version="1.1"
   id="svg2"
   width="715.40283"
   height="79.759987"
   viewBox="0 0 715.40283 79.759986"
   sodipodi:docname="banner2.svg"
   inkscape:version="0.92.2 2405546, 2018-03-11">
  <metadata
     id="metadata8">
    <rdf:RDF>
      <cc:Work
         rdf:about="">
        <dc:format>image/svg+xml</dc:format>
        <dc:type
           rdf:resource="http://purl.org/dc/dcmitype/StillImage" />
        <dc:title></dc:title>
      </cc:Work>
    </rdf:RDF>
  </metadata>
  <defs
     id="defs6" />
  <sodipodi:namedview
     pagecolor="#ffffff"
     bordercolor="#666666"
     borderopacity="1"
     objecttolerance="10"
     gridtolerance="10"
     guidetolerance="10"
     inkscape:pageopacity="0"
     inkscape:pageshadow="2"
     inkscape:window-width="1364"
     inkscape:window-height="732"
     id="namedview4"
     showgrid="false"
     fit-margin-top="0"
     fit-margin-left="0"
     fit-margin-right="0"
     fit-margin-bottom="0"
     inkscape:zoom="1.05625"
     inkscape:cx="485.33385"
     inkscape:cy="1.2605234"
     inkscape:window-x="0"
     inkscape:window-y="35"
     inkscape:window-maximized="0"
     inkscape:current-layer="svg2" />
  <g
     id="g195"
     transform="matrix(0.37725627,0,0,0.37725627,-102.98892,227.87317)">
    <g
       style="fill:#ffffff"
       transform="matrix(1.0147311,0,0,1.0147311,321.30245,-561.28605)"
       id="g836">
      <path
         inkscape:connector-curvature="0"
         id="path840"
         d="m 57.045293,123.86112 c -2.358489,-0.81503 -3.74239,-2.00394 -4.771082,-4.09883 l -0.899095,-1.83096 v -7.63127 c 0,-8.38338 0.140281,-9.2872 1.832647,-11.807745 0.746033,-1.111113 1.538341,-1.792251 2.880623,-2.476448 1.678533,-0.855593 2.141736,-0.943778 4.957131,-0.943778 2.754557,0 3.310843,0.100421 4.921521,0.888454 3.210083,1.570547 4.301672,4.032263 4.560818,10.285407 l 0.1746,4.21309 h -8.200544 -8.200543 l 0.197086,2.62325 c 0.322595,4.29379 1.200151,6.32034 3.370132,7.78269 1.195441,0.8056 4.027112,0.99805 5.648162,0.38385 1.852821,-0.70202 3.575093,-3.17009 3.590874,-5.14583 0.0068,-0.84965 0.05774,-0.87441 1.799033,-0.87441 h 1.792054 l -0.197411,1.44026 c -0.304119,2.2188 -1.438469,4.51702 -2.808183,5.68944 -2.315286,1.9818 -7.247431,2.67792 -10.647823,1.50283 z m 10.0395,-19.08858 c -0.324552,-4.5896 -1.889668,-6.690094 -5.188759,-6.963679 -4.901251,-0.40645 -6.749982,1.513026 -7.360502,7.642169 l -0.213791,2.14629 h 6.481403 6.481404 z m 14.884552,19.33007 c -2.566389,-0.60431 -4.203566,-1.9919 -5.314545,-4.50434 -1.011572,-2.28763 -1.446259,-8.02097 -1.035919,-13.66334 0.46289,-6.364944 1.405956,-8.349976 4.742531,-9.982412 1.527178,-0.747178 2.206978,-0.883196 4.414103,-0.883196 2.160237,0 2.875064,0.136966 4.156471,0.796399 1.934158,0.995353 3.189288,2.750395 3.659343,5.116839 0.496261,2.49836 0.322297,2.79913 -1.619034,2.79913 H 89.37247 l -0.007,-1.19239 c -0.01081,-1.84565 -0.999721,-3.696834 -2.306013,-4.316709 -1.41747,-0.672632 -3.476443,-0.681736 -4.867744,-0.02153 -2.445694,1.160557 -3.105592,4.019259 -2.943065,12.749409 0.105842,5.68543 0.152469,6.06501 0.955988,7.78265 1.00044,2.13856 2.045253,2.80486 4.398287,2.80486 2.939972,0 4.296251,-1.2973 4.671853,-4.46867 l 0.18627,-1.57275 h 1.74832 1.74832 l -0.213981,1.82832 c -0.405017,3.46063 -1.965045,5.5408 -4.943408,6.59163 -1.490418,0.52585 -3.933603,0.58288 -5.830956,0.1361 z m 45.241495,-0.25603 c -2.81313,-0.99718 -4.05595,-2.82165 -4.62511,-6.78967 l -0.21664,-1.51035 h 1.78494 c 1.65468,0 1.78493,0.0538 1.78493,0.73721 0,1.63011 0.96628,3.99784 1.90405,4.66558 1.17645,0.83771 3.68621,1.15481 5.19608,0.65651 3.13119,-1.03339 3.98843,-5.62505 1.54893,-8.29657 -0.47234,-0.51727 -2.32372,-1.72043 -4.11416,-2.67367 -4.1702,-2.22026 -5.32175,-3.15158 -6.29124,-5.08804 -1.99778,-3.99037 -0.18792,-9.02108 3.59912,-10.004197 6.42581,-1.668138 10.65856,0.551652 11.37685,5.966387 l 0.21702,1.63598 h -1.74845 -1.74844 l -0.16537,-1.46719 c -0.29572,-2.623583 -1.79582,-3.926405 -4.52789,-3.932418 -2.98601,-0.0066 -4.90489,2.080547 -4.44041,4.829738 0.3119,1.84613 1.65821,3.14081 5.20524,5.00562 1.73839,0.91394 3.73363,2.08304 4.43387,2.598 2.90815,2.13868 3.8524,6.99242 2.0351,10.46111 -1.27273,2.42927 -3.38901,3.57171 -6.88768,3.7182 -1.95117,0.0817 -2.994,-0.0419 -4.32074,-0.51223 z m 37.24217,0.0613 c -3.17595,-1.12233 -5.03437,-4.50867 -4.73823,-8.63383 0.26904,-3.74787 2.30998,-6.37223 5.81482,-7.47703 1.36419,-0.43002 6.50297,-1.05285 9.45615,-1.1461 0.13117,-0.004 0.23161,-1.18799 0.22321,-2.63078 -0.0251,-4.30793 -1.29614,-5.968189 -4.76097,-6.218812 -3.36999,-0.243765 -5.7554,1.147364 -6.22074,3.627822 -0.20075,1.0701 -0.21944,1.08064 -1.91617,1.08064 -1.62149,0 -1.71345,-0.0432 -1.71345,-0.80514 0,-2.264244 2.09269,-4.890404 4.70924,-5.909729 2.72563,-1.061817 7.19847,-1.017435 9.62817,0.09553 1.95001,0.893237 2.8948,1.972692 3.42797,3.916592 0.21457,0.782297 0.38139,5.647587 0.43337,12.639327 l 0.0845,11.36745 -1.66934,-4e-5 -1.66934,-4e-5 v -1.61931 -1.61931 l -1.62074,1.45718 c -2.55193,2.2944 -6.22458,3.02191 -9.46845,1.87558 z m 7.55174,-3.36875 c 0.71843,-0.47543 1.70094,-1.46018 2.18336,-2.18834 0.8139,-1.22848 0.88486,-1.59838 0.98432,-5.13114 l 0.10718,-3.80722 -3.55144,0.16833 c -3.09432,0.14667 -3.7797,0.28565 -5.32481,1.07975 -2.19589,1.12856 -3.0371,2.54535 -3.06533,5.16273 -0.024,2.22531 0.81848,4.04623 2.34712,5.07295 1.55939,1.04737 4.44361,0.88442 6.3196,-0.35706 z m 33.2676,3.61323 c -3.34495,-0.81433 -5.56447,-3.74408 -5.56447,-7.34506 v -1.26076 h 1.70946 1.70946 l 0.14612,1.76201 c 0.25981,3.13296 2.19575,4.75025 5.37717,4.49211 3.04559,-0.24711 4.41251,-1.743 4.41251,-4.82884 0,-2.75878 -1.18175,-4.06276 -6.03222,-6.65616 -5.24528,-2.80448 -6.50176,-4.40117 -6.518,-8.28283 -0.0131,-3.141074 0.90575,-4.750409 3.43378,-6.01382 1.61388,-0.806555 2.20995,-0.927253 4.61056,-0.933583 2.18246,-0.0058 3.02212,0.130542 4.02892,0.653999 2.16826,1.127313 3.28074,2.902028 3.56882,5.693244 l 0.1768,1.71306 h -1.59822 -1.59823 L 212.9306,101.784 c -0.44909,-2.994789 -2.17661,-4.269471 -5.37032,-3.962596 -3.06142,0.294164 -4.60112,3.209856 -3.22568,6.108386 0.60198,1.26859 2.24247,2.4635 6.10716,4.44835 5.41013,2.77858 7.07776,6.04859 5.60823,10.99705 -0.97054,3.26815 -3.9249,5.11783 -8.05312,5.04194 -0.97384,-0.0179 -2.19987,-0.13705 -2.72452,-0.26477 z M 40.501938,123.19181 C 38.32747,121.86596 38.355353,122.0301 38.179383,109.51987 L 38.020398,98.21722 35.874104,98.1232 33.72781,98.029179 v -1.25735 -1.257349 h 2.213854 2.213855 l 0.09142,-2.919666 0.09143,-2.919666 1.669339,-0.730786 1.66934,-0.730783 v 3.650452 3.650449 h 2.861725 2.861726 v 1.259499 1.259496 l -2.782233,0.09187 -2.782233,0.09187 v 10.698375 c 0,12.67813 -0.180621,12.03644 3.387961,12.03644 h 2.176505 v 1.43086 1.43086 l -2.941218,-0.001 c -2.354234,-9.5e-4 -3.144007,-0.12484 -3.957342,-0.62076 z M 98.593585,103.6227 V 83.43164 h 1.748835 1.74883 v 7.697471 7.697472 l 1.35137,-1.303506 c 2.02604,-1.954279 3.21058,-2.451952 5.80294,-2.43806 3.36685,0.01806 5.48461,1.302976 6.74168,4.090452 0.5104,1.131781 0.58206,2.519121 0.66905,12.952911 l 0.0974,11.68538 h -1.75517 -1.75518 l -0.0911,-11.20842 c -0.086,-10.58728 -0.12721,-11.27729 -0.74308,-12.45117 -0.92032,-1.75421 -2.38153,-2.482964 -4.67827,-2.333213 -2.65047,0.17282 -4.52912,1.816432 -5.31661,4.651453 -0.183,0.65879 -0.32028,5.46395 -0.3213,11.24582 l -0.002,10.09553 h -1.74883 -1.748835 z m 50.842645,19.46376 c -2.01076,-1.35357 -2.02446,-1.44253 -2.12898,-13.8198 l -0.0947,-11.208425 h -2.21063 -2.21063 V 96.786357 95.51448 h 2.21386 2.21385 l 0.0914,-2.902766 0.0914,-2.902762 1.66934,-0.73589 1.66934,-0.735889 v 3.638655 3.638652 h 2.86173 2.86172 v 1.259499 1.259496 l -2.78223,0.09187 -2.78224,0.09187 v 10.698465 c 0,12.67813 -0.18064,12.03636 3.38797,12.03636 h 2.1765 v 1.43086 1.43086 h -2.97369 c -2.57132,0 -3.11987,-0.0984 -4.05411,-0.7273 z m 36.28099,-13.42234 V 95.51448 h 1.58985 1.58985 l 0.002,1.987309 0.002,1.987309 0.62694,-0.951152 c 1.21742,-1.846967 3.25238,-3.005698 6.12572,-3.488055 l 1.19239,-0.200168 v 1.763243 1.763239 l -1.03341,0.0019 c -1.77097,0.0032 -3.41408,0.632123 -4.71073,1.803575 -2.04905,1.85082 -2.20536,2.84264 -2.20536,13.99172 v 9.64035 h -1.58985 -1.58985 z M 219.263,94.893158 c -2.34109,-0.968341 -3.03805,-4.212552 -1.29567,-6.031198 1.16053,-1.211336 2.62889,-1.52797 3.94048,-0.849719 1.38912,0.718341 1.96575,1.706491 1.96575,3.368635 0,1.729312 -0.64425,2.764793 -2.09814,3.372267 -1.18975,0.49711 -1.59455,0.51967 -2.51242,0.140015 z m 2.21041,-0.782622 c 1.27352,-0.532109 1.76421,-1.32481 1.76421,-2.850008 0,-1.631934 -1.16475,-2.868565 -2.70182,-2.868565 -0.95254,0 -1.38638,0.214871 -2.14253,1.061154 -0.78877,0.882791 -0.9179,1.247502 -0.76823,2.169833 0.23351,1.438904 1.30908,2.609095 2.68158,2.917465 0.0493,0.0111 0.57439,-0.182359 1.16679,-0.429879 z m -2.36939,-2.888644 V 89.15509 h 1.07396 c 1.38983,0 1.69131,0.430804 1.72448,2.464264 0.0269,1.647263 -0.43273,2.343132 -0.63003,0.953908 -0.0653,-0.459771 -0.35727,-0.75174 -0.81704,-0.817038 -0.58267,-0.08275 -0.71543,0.05 -0.71543,0.715431 0,0.44937 -0.14309,0.817038 -0.31797,0.817038 -0.17937,0 -0.31797,-0.900912 -0.31797,-2.066801 z m 2.0668,-0.794924 c 0,-0.262325 -0.32194,-0.522678 -0.71543,-0.578561 -0.55063,-0.0782 -0.71543,0.05508 -0.71543,0.578561 0,0.523486 0.1648,0.656763 0.71543,0.578561 0.39349,-0.05588 0.71543,-0.316236 0.71543,-0.578561 z M 57.098567,71.409395 C 60.421348,68.122179 70.117405,58.597391 78.645362,50.243197 l 15.505375,-15.189445 1.188023,0.931294 c 9.12358,7.151995 15.43818,11.810597 15.75293,11.621752 0.28997,-0.173974 0.2928,-0.119471 0.012,0.230715 -0.20224,0.252176 -1.67852,4.679545 -3.28062,9.838599 -1.6021,5.159055 -3.33253,10.668229 -3.84539,12.24261 -1.05146,3.227782 -1.09219,3.46734 -0.53501,3.146696 1.01017,-0.581324 -0.18477,0.302624 -3.00608,2.223742 l -3.085577,2.10106 -23.146913,-0.0019 -23.146913,-0.0019 6.04142,-5.976748 z m 93.165063,3.973979 c -1.75993,-1.210157 -2.89696,-2.212616 -2.95323,-2.603712 -0.0503,-0.349766 -1.78389,-6.043369 -3.85236,-12.65245 -2.54538,-8.132906 -3.95451,-12.167891 -4.36007,-12.484906 -0.42704,-0.333814 -0.46217,-0.444232 -0.12226,-0.384298 0.26232,0.04625 0.55458,0.187592 0.64946,0.31409 0.0949,0.126498 3.88667,-2.622612 8.42619,-6.109132 l 8.25369,-6.339127 3.01648,2.929439 c 3.29408,3.199034 13.64405,13.322749 25.59773,25.038176 4.19887,4.11518 9.20826,9.014475 11.13197,10.887325 l 3.49767,3.40518 -23.21178,-0.01641 -23.21177,-0.01641 -2.86172,-1.967773 z M 125.30302,58.630021 c -0.28658,-0.185205 -0.3258,-0.310176 -0.0983,-0.313102 0.20829,-0.0025 0.46713,0.138218 0.57522,0.313102 0.24397,0.394768 0.1339,0.394768 -0.47696,0 z m -9.82513,-27.439328 c -0.40221,-0.669742 -0.39543,-0.676518 0.15209,-0.152095 0.31518,0.301882 0.50461,0.617319 0.42096,0.700971 -0.0836,0.08365 -0.34152,-0.163343 -0.57305,-0.548876 z m 19.68219,-0.344068 c 0,-0.06603 0.2504,-0.316429 0.55644,-0.556446 0.50432,-0.395513 0.51557,-0.384267 0.12005,0.120051 -0.41538,0.529657 -0.67649,0.698095 -0.67649,0.436395 z m -21.34452,-1.072334 c -0.39551,-0.504317 -0.38427,-0.515564 0.12005,-0.120051 0.52966,0.415385 0.6981,0.676497 0.4364,0.676497 -0.066,0 -0.31643,-0.2504 -0.55645,-0.556446 z m 22.61639,0.118426 c 0,-0.06603 0.2504,-0.316429 0.55645,-0.556447 0.50432,-0.395513 0.51556,-0.384266 0.12005,0.120051 -0.41538,0.529657 -0.6765,0.698096 -0.6765,0.436396 z m 2.86173,-2.225786 c 0,-0.06603 0.2504,-0.316429 0.55645,-0.556447 0.50431,-0.395513 0.51556,-0.384266 0.12005,0.120051 -0.41539,0.529657 -0.6765,0.698095 -0.6765,0.436396 z m -29.61172,-1.072335 c -0.39552,-0.504317 -0.38427,-0.515564 0.12005,-0.120051 0.30604,0.240018 0.55645,0.490419 0.55645,0.556447 0,0.261699 -0.26112,0.09326 -0.6765,-0.436396 z m 30.8836,0.118426 c 0,-0.06603 0.2504,-0.316429 0.55644,-0.556446 0.50432,-0.395513 0.51557,-0.384267 0.12006,0.120051 -0.41539,0.529657 -0.6765,0.698095 -0.6765,0.436395 z m 2.86172,-2.225786 c 0,-0.06603 0.2504,-0.316429 0.55645,-0.556447 0.50432,-0.395513 0.51556,-0.384266 0.12005,0.120051 -0.41538,0.529657 -0.6765,0.698096 -0.6765,0.436396 z m -37.87893,-1.072335 c -0.39551,-0.504317 -0.38426,-0.515564 0.12006,-0.120051 0.52965,0.415386 0.69809,0.676498 0.43639,0.676498 -0.066,0 -0.31643,-0.250401 -0.55645,-0.556447 z m 39.15081,0.118427 c 0,-0.06603 0.2504,-0.31643 0.55645,-0.556447 0.50431,-0.395513 0.51556,-0.384266 0.12005,0.120051 -0.41539,0.529657 -0.6765,0.698095 -0.6765,0.436396 z m 3.06471,-2.58269 c 0.10066,-0.262325 0.32832,-0.476954 0.50591,-0.476954 0.18611,0 0.1552,0.20204 -0.073,0.476954 -0.21771,0.262325 -0.44537,0.476954 -0.5059,0.476954 -0.0605,0 -0.0277,-0.214629 0.0729,-0.476954 z M 125.14404,4.2572406 c -0.10809,-0.1748832 -0.045,-0.3179694 0.14021,-0.3179694 0.18521,0 0.33674,0.1430862 0.33674,0.3179694 0,0.1748833 -0.0631,0.3179695 -0.14022,0.3179695 -0.0771,0 -0.22865,-0.1430862 -0.33673,-0.3179695 z"
         style="fill:#ffffff;stroke-width:0.31796947" />
      <path
         inkscape:connector-curvature="0"
         id="path838"
         d="m 97.639676,77.277674 c 0,-0.0619 1.466634,-1.093211 3.259184,-2.2918 1.79256,-1.198592 7.94078,-5.368991 13.66273,-9.267554 5.72194,-3.898566 10.52759,-7.088299 10.67921,-7.088299 0.15162,0 5.05893,3.255212 10.90515,7.233805 5.84621,3.978593 12.02243,8.147001 13.72495,9.263128 1.70251,1.116127 3.09547,2.081959 3.09547,2.146294 0,0.06433 -12.44851,0.116972 -27.66335,0.116972 -15.21484,0 -27.663344,-0.05065 -27.663344,-0.112546 z M 111.32268,46.626673 c 0.16236,-0.480929 1.30022,-4.093857 2.52857,-8.028729 l 2.23336,-7.154313 -0.87577,-0.718602 c -0.48167,-0.39523 -3.55125,-2.756154 -6.82129,-5.246496 -3.27003,-2.490342 -5.9529,-4.63291 -5.96192,-4.761262 -0.009,-0.128351 3.86515,-0.271438 8.60928,-0.317969 l 8.6257,-0.0846 2.73562,-8.018925 c 1.50459,-4.4104082 2.82732,-7.9160216 2.9394,-7.7902517 0.11208,0.1257699 1.4026,3.7684779 2.86782,8.0949067 l 2.66404,7.866234 8.50568,0.0035 c 4.67813,0.0019 8.50568,0.123181 8.50568,0.269445 0,0.146263 -2.92641,2.509767 -6.50315,5.25223 -3.57673,2.742464 -6.58931,5.125707 -6.69462,5.296095 -0.1053,0.170389 0.89966,3.830144 2.23326,8.132791 1.3336,4.302645 2.37099,7.876727 2.30531,7.942407 -0.0657,0.06568 -3.2437,-2.019504 -7.06226,-4.633734 l -6.94285,-4.753148 -2.89698,2.004712 c -7.01199,4.852306 -10.95568,7.520118 -11.1166,7.520118 -0.0954,0 -0.0406,-0.393487 0.12172,-0.874416 z"
         style="fill:#ffffff;stroke-width:0.31796947" />
    </g>
    <g
       aria-label="# GSWAI"
       style="font-style:normal;font-variant:normal;font-weight:normal;font-stretch:normal;font-size:40px;line-height:1.25;font-family:'Noto Sans';-inkscape-font-specification:'Noto Sans';letter-spacing:0px;word-spacing:0px;fill:#e8c034;fill-opacity:1;stroke:none"
       id="text76">
      <path
         d="m 594.98031,-503.80146 -1.984,10.24 h 8.768 v 4.288 h -9.6 l -2.624,13.376 h -4.544 l 2.624,-13.376 h -9.152 l -2.496,13.376 h -4.48 l 2.432,-13.376 h -8.064 v -4.288 h 8.896 l 2.048,-10.24 h -8.576 v -4.224 h 9.344 l 2.56,-13.568 h 4.608 l -2.56,13.568 h 9.216 l 2.56,-13.568 h 4.416 l -2.56,13.568 h 8.128 v 4.224 z m -15.68,10.24 h 9.152 l 1.984,-10.24 h -9.152 z"
         style="font-size:64px"
         id="path297" />
      <path
         d="m 648.30831,-500.02546 h 15.808 v 22.4 q -3.712,1.216 -7.488,1.792 -3.776,0.576 -8.576,0.576 -7.104,0 -11.968,-2.816 -4.864,-2.88 -7.424,-8.128 -2.496,-5.312 -2.496,-12.544 0,-7.104 2.752,-12.352 2.816,-5.312 8.128,-8.192 5.312,-2.944 12.8,-2.944 3.84,0 7.232,0.704 3.456,0.704 6.4,1.984 l -2.176,4.992 q -2.432,-1.024 -5.504,-1.792 -3.008,-0.832 -6.272,-0.832 -8.192,0 -12.8,4.992 -4.544,4.928 -4.544,13.44 0,5.44 1.728,9.664 1.792,4.16 5.568,6.528 3.776,2.304 9.92,2.304 3.008,0 5.12,-0.32 2.112,-0.32 3.84,-0.768 v -13.568 h -10.048 z"
         style="font-size:64px"
         id="path299" />
      <path
         d="m 701.01331,-488.12146 q 0,6.08 -4.416,9.472 -4.416,3.392 -11.904,3.392 -3.84,0 -7.104,-0.576 -3.264,-0.576 -5.44,-1.6 v -5.504 q 2.304,1.024 5.696,1.856 3.456,0.832 7.104,0.832 5.056,0 7.68,-1.984 2.624,-1.984 2.624,-5.376 0,-2.24 -0.96,-3.776 -0.96,-1.536 -3.328,-2.816 -2.368,-1.28 -6.464,-2.816 -5.888,-2.112 -8.832,-5.184 -2.944,-3.072 -2.944,-8.384 0,-3.584 1.856,-6.208 1.856,-2.624 5.12,-4.032 3.264,-1.408 7.616,-1.408 3.712,0 6.848,0.704 3.136,0.704 5.76,1.856 l -1.792,4.928 q -2.368,-1.024 -5.184,-1.728 -2.816,-0.704 -5.76,-0.704 -4.288,0 -6.464,1.856 -2.176,1.792 -2.176,4.8 0,2.304 0.96,3.84 0.96,1.536 3.136,2.816 2.176,1.216 5.888,2.56 4.032,1.472 6.784,3.2 2.816,1.664 4.224,4.032 1.472,2.368 1.472,5.952 z"
         style="font-size:64px"
         id="path301" />
      <path
         d="m 762.69831,-521.59346 -12.16,45.696 h -5.824 l -8.896,-29.952 q -0.576,-1.792 -1.088,-3.648 -0.448,-1.92 -0.832,-3.328 -0.32,-1.472 -0.384,-2.048 -0.064,0.832 -0.704,3.584 -0.64,2.688 -1.472,5.632 l -8.64,29.76 h -5.824 l -12.096,-45.696 h 6.016 l 7.104,27.904 q 0.768,2.944 1.28,5.696 0.576,2.752 0.896,5.184 0.32,-2.496 0.96,-5.44 0.64,-2.944 1.472,-5.76 l 8.064,-27.584 h 5.952 l 8.384,27.776 q 0.896,2.944 1.536,5.888 0.64,2.944 0.96,5.12 0.256,-2.368 0.832,-5.12 0.64,-2.816 1.408,-5.824 l 7.04,-27.84 z"
         style="font-size:64px"
         id="path303" />
      <path
         d="m 795.89031,-475.89746 -5.504,-14.144 h -18.112 l -5.44,14.144 h -5.824 l 17.856,-45.888 h 5.184 l 17.792,45.888 z m -7.232,-19.264 -5.12,-13.824 q -0.192,-0.512 -0.64,-1.856 -0.448,-1.344 -0.896,-2.752 -0.384,-1.472 -0.64,-2.24 -0.512,1.984 -1.088,3.904 -0.512,1.856 -0.896,2.944 l -5.184,13.824 z"
         style="font-size:64px"
         id="path305" />
      <path
         d="m 820.95731,-475.89746 h -16.512 v -3.328 l 5.376,-1.216 v -36.544 l -5.376,-1.28 v -3.328 h 16.512 v 3.328 l -5.376,1.28 v 36.544 l 5.376,1.216 z"
         style="font-size:64px"
         id="path307" />
    </g>
    <g
       aria-label="# SWAIMexico"
       style="font-style:normal;font-variant:normal;font-weight:normal;font-stretch:normal;font-size:40px;line-height:1.25;font-family:'Noto Sans';-inkscape-font-specification:'Noto Sans';letter-spacing:0px;word-spacing:0px;fill:#e8c034;fill-opacity:1;stroke:none"
       id="text80">
      <path
         d="m 1841.8095,-436.51529 -1.24,6.4 h 5.48 v 2.68 h -6 l -1.64,8.36 h -2.84 l 1.64,-8.36 h -5.72 l -1.56,8.36 h -2.8 l 1.52,-8.36 h -5.04 v -2.68 h 5.56 l 1.28,-6.4 h -5.36 v -2.64 h 5.84 l 1.6,-8.48 h 2.88 l -1.6,8.48 h 5.76 l 1.6,-8.48 h 2.76 l -1.6,8.48 h 5.08 v 2.64 z m -9.8,6.4 h 5.72 l 1.24,-6.4 h -5.72 z"
         style=""
         id="path274" />
      <path
         d="m 1878.9395,-426.71529 q 0,3.8 -2.76,5.92 -2.76,2.12 -7.44,2.12 -2.4,0 -4.44,-0.36 -2.04,-0.36 -3.4,-1 v -3.44 q 1.44,0.64 3.56,1.16 2.16,0.52 4.44,0.52 3.16,0 4.8,-1.24 1.64,-1.24 1.64,-3.36 0,-1.4 -0.6,-2.36 -0.6,-0.96 -2.08,-1.76 -1.48,-0.8 -4.04,-1.76 -3.68,-1.32 -5.52,-3.24 -1.84,-1.92 -1.84,-5.24 0,-2.24 1.16,-3.88 1.16,-1.64 3.2,-2.52 2.04,-0.88 4.76,-0.88 2.32,0 4.28,0.44 1.96,0.44 3.6,1.16 l -1.12,3.08 q -1.48,-0.64 -3.24,-1.08 -1.76,-0.44 -3.6,-0.44 -2.68,0 -4.04,1.16 -1.36,1.12 -1.36,3 0,1.44 0.6,2.4 0.6,0.96 1.96,1.76 1.36,0.76 3.68,1.6 2.52,0.92 4.24,2 1.76,1.04 2.64,2.52 0.92,1.48 0.92,3.72 z"
         style=""
         id="path276" />
      <path
         d="m 1917.4926,-447.63529 -7.6,28.56 h -3.64 l -5.56,-18.72 q -0.36,-1.12 -0.68,-2.28 -0.28,-1.2 -0.52,-2.08 -0.2,-0.92 -0.24,-1.28 -0.04,0.52 -0.44,2.24 -0.4,1.68 -0.92,3.52 l -5.4,18.6 h -3.64 l -7.56,-28.56 h 3.76 l 4.44,17.44 q 0.48,1.84 0.8,3.56 0.36,1.72 0.56,3.24 0.2,-1.56 0.6,-3.4 0.4,-1.84 0.92,-3.6 l 5.04,-17.24 h 3.72 l 5.24,17.36 q 0.56,1.84 0.96,3.68 0.4,1.84 0.6,3.2 0.16,-1.48 0.52,-3.2 0.4,-1.76 0.88,-3.64 l 4.4,-17.4 z"
         style=""
         id="path278" />
      <path
         d="m 1938.2376,-419.07529 -3.44,-8.84 h -11.32 l -3.4,8.84 h -3.64 l 11.16,-28.68 h 3.24 l 11.12,28.68 z m -4.52,-12.04 -3.2,-8.64 q -0.12,-0.32 -0.4,-1.16 -0.28,-0.84 -0.56,-1.72 -0.24,-0.92 -0.4,-1.4 -0.32,1.24 -0.68,2.44 -0.32,1.16 -0.56,1.84 l -3.24,8.64 z"
         style=""
         id="path280" />
      <path
         d="m 1953.9045,-419.07529 h -10.32 v -2.08 l 3.36,-0.76 v -22.84 l -3.36,-0.8 v -2.08 h 10.32 v 2.08 l -3.36,0.8 v 22.84 l 3.36,0.76 z"
         style=""
         id="path282" />
      <path
         d="m 1972.0582,-419.07529 -9.4,-25.04 h -0.16 q 0.12,1.24 0.2,3.36 0.08,2.08 0.08,4.36 v 17.32 h -3.32 v -28.56 h 5.32 l 8.8,23.4 h 0.16 l 8.96,-23.4 h 5.28 v 28.56 h -3.56 v -17.56 q 0,-2.08 0.08,-4.12 0.12,-2.04 0.2,-3.32 h -0.16 l -9.52,25 z"
         style=""
         id="path284" />
      <path
         d="m 2003.5082,-440.91529 q 2.72,0 4.72,1.2 2,1.2 3.04,3.4 1.08,2.16 1.08,5.08 v 2.12 h -14.68 q 0.08,3.64 1.84,5.56 1.8,1.88 5,1.88 2.04,0 3.6,-0.36 1.6,-0.4 3.28,-1.12 v 3.08 q -1.64,0.72 -3.24,1.04 -1.6,0.36 -3.8,0.36 -3.08,0 -5.4,-1.24 -2.32,-1.24 -3.64,-3.68 -1.28,-2.44 -1.28,-6.04 0,-3.52 1.16,-6.04 1.2,-2.52 3.32,-3.88 2.16,-1.36 5,-1.36 z m -0.04,2.88 q -2.52,0 -4,1.64 -1.44,1.6 -1.72,4.48 h 10.92 q -0.04,-2.72 -1.28,-4.4 -1.24,-1.72 -3.92,-1.72 z"
         style=""
         id="path286" />
      <path
         d="m 2022.1051,-430.03529 -7.4,-10.48 h 4 l 5.52,8.08 5.48,-8.08 h 3.96 l -7.4,10.48 7.8,10.96 h -4 l -5.84,-8.56 -5.92,8.56 h -3.96 z"
         style=""
         id="path288" />
      <path
         d="m 2039.997,-448.55529 q 0.8,0 1.4,0.56 0.64,0.52 0.64,1.68 0,1.16 -0.64,1.72 -0.6,0.52 -1.4,0.52 -0.88,0 -1.48,-0.52 -0.6,-0.56 -0.6,-1.72 0,-1.16 0.6,-1.68 0.6,-0.56 1.48,-0.56 z m 1.72,8.04 v 21.44 h -3.52 v -21.44 z"
         style=""
         id="path290" />
      <path
         d="m 2057.1095,-418.67529 q -2.88,0 -5.08,-1.16 -2.2,-1.16 -3.48,-3.6 -1.24,-2.44 -1.24,-6.24 0,-3.96 1.28,-6.44 1.32,-2.48 3.6,-3.64 2.28,-1.16 5.16,-1.16 1.6,0 3.12,0.36 1.56,0.32 2.52,0.8 l -1.08,2.92 q -0.96,-0.36 -2.24,-0.68 -1.28,-0.32 -2.4,-0.32 -6.32,0 -6.32,8.12 0,3.88 1.52,5.96 1.56,2.04 4.6,2.04 1.72,0 3.08,-0.36 1.36,-0.36 2.48,-0.88 v 3.12 q -1.08,0.56 -2.4,0.84 -1.28,0.32 -3.12,0.32 z"
         style=""
         id="path292" />
      <path
         d="m 2086.3682,-429.83529 q 0,5.32 -2.72,8.24 -2.68,2.92 -7.28,2.92 -2.84,0 -5.08,-1.28 -2.2,-1.32 -3.48,-3.8 -1.28,-2.52 -1.28,-6.08 0,-5.32 2.64,-8.2 2.68,-2.88 7.32,-2.88 2.88,0 5.12,1.32 2.24,1.28 3.48,3.76 1.28,2.44 1.28,6 z m -16.2,0 q 0,3.8 1.48,6.04 1.52,2.2 4.8,2.2 3.24,0 4.76,-2.2 1.52,-2.24 1.52,-6.04 0,-3.8 -1.52,-5.96 -1.52,-2.16 -4.8,-2.16 -3.28,0 -4.76,2.16 -1.48,2.16 -1.48,5.96 z"
         style=""
         id="path294" />
    </g>
    <g
       aria-label="# SWAILima"
       style="font-style:normal;font-variant:normal;font-weight:normal;font-stretch:normal;font-size:40px;line-height:1.25;font-family:'Noto Sans';-inkscape-font-specification:'Noto Sans';letter-spacing:0px;word-spacing:0px;fill:#e8c034;fill-opacity:1;stroke:none"
       id="text84">
      <path
         d="m 1312.6185,-492.92148 -1.24,6.4 h 5.48 v 2.68 h -6 l -1.64,8.36 h -2.84 l 1.64,-8.36 h -5.72 l -1.56,8.36 h -2.8 l 1.52,-8.36 h -5.04 v -2.68 h 5.56 l 1.28,-6.4 h -5.36 v -2.64 h 5.84 l 1.6,-8.48 h 2.88 l -1.6,8.48 h 5.76 l 1.6,-8.48 h 2.76 l -1.6,8.48 h 5.08 v 2.64 z m -9.8,6.4 h 5.72 l 1.24,-6.4 h -5.72 z"
         style=""
         id="path255" />
      <path
         d="m 1349.7485,-483.12148 q 0,3.8 -2.76,5.92 -2.76,2.12 -7.44,2.12 -2.4,0 -4.44,-0.36 -2.04,-0.36 -3.4,-1 v -3.44 q 1.44,0.64 3.56,1.16 2.16,0.52 4.44,0.52 3.16,0 4.8,-1.24 1.64,-1.24 1.64,-3.36 0,-1.4 -0.6,-2.36 -0.6,-0.96 -2.08,-1.76 -1.48,-0.8 -4.04,-1.76 -3.68,-1.32 -5.52,-3.24 -1.84,-1.92 -1.84,-5.24 0,-2.24 1.16,-3.88 1.16,-1.64 3.2,-2.52 2.04,-0.88 4.76,-0.88 2.32,0 4.28,0.44 1.96,0.44 3.6,1.16 l -1.12,3.08 q -1.48,-0.64 -3.24,-1.08 -1.76,-0.44 -3.6,-0.44 -2.68,0 -4.04,1.16 -1.36,1.12 -1.36,3 0,1.44 0.6,2.4 0.6,0.96 1.96,1.76 1.36,0.76 3.68,1.6 2.52,0.92 4.24,2 1.76,1.04 2.64,2.52 0.92,1.48 0.92,3.72 z"
         style=""
         id="path257" />
      <path
         d="m 1388.3016,-504.04148 -7.6,28.56 h -3.64 l -5.56,-18.72 q -0.36,-1.12 -0.68,-2.28 -0.28,-1.2 -0.52,-2.08 -0.2,-0.92 -0.24,-1.28 -0.04,0.52 -0.44,2.24 -0.4,1.68 -0.92,3.52 l -5.4,18.6 h -3.64 l -7.56,-28.56 h 3.76 l 4.44,17.44 q 0.48,1.84 0.8,3.56 0.36,1.72 0.56,3.24 0.2,-1.56 0.6,-3.4 0.4,-1.84 0.92,-3.6 l 5.04,-17.24 h 3.72 l 5.24,17.36 q 0.56,1.84 0.96,3.68 0.4,1.84 0.6,3.2 0.16,-1.48 0.52,-3.2 0.4,-1.76 0.88,-3.64 l 4.4,-17.4 z"
         style=""
         id="path259" />
      <path
         d="m 1409.0466,-475.48148 -3.44,-8.84 h -11.32 l -3.4,8.84 h -3.64 l 11.16,-28.68 h 3.24 l 11.12,28.68 z m -4.52,-12.04 -3.2,-8.64 q -0.12,-0.32 -0.4,-1.16 -0.28,-0.84 -0.56,-1.72 -0.24,-0.92 -0.4,-1.4 -0.32,1.24 -0.68,2.44 -0.32,1.16 -0.56,1.84 l -3.24,8.64 z"
         style=""
         id="path261" />
      <path
         d="m 1424.7135,-475.48148 h -10.32 v -2.08 l 3.36,-0.76 v -22.84 l -3.36,-0.8 v -2.08 h 10.32 v 2.08 l -3.36,0.8 v 22.84 l 3.36,0.76 z"
         style=""
         id="path263" />
      <path
         d="m 1430.2672,-475.48148 v -28.56 h 3.6 v 25.36 h 12.48 v 3.2 z"
         style=""
         id="path265" />
      <path
         d="m 1452.5247,-504.96148 q 0.8,0 1.4,0.56 0.64,0.52 0.64,1.68 0,1.16 -0.64,1.72 -0.6,0.52 -1.4,0.52 -0.88,0 -1.48,-0.52 -0.6,-0.56 -0.6,-1.72 0,-1.16 0.6,-1.68 0.6,-0.56 1.48,-0.56 z m 1.72,8.04 v 21.44 h -3.52 v -21.44 z"
         style=""
         id="path267" />
      <path
         d="m 1484.5572,-497.32148 q 3.64,0 5.44,1.88 1.8,1.88 1.8,6 v 13.96 h -3.48 v -13.8 q 0,-5.08 -4.36,-5.08 -3.12,0 -4.48,1.8 -1.32,1.8 -1.32,5.24 v 11.84 h -3.48 v -13.8 q 0,-5.08 -4.4,-5.08 -3.24,0 -4.48,2 -1.24,2 -1.24,5.76 v 11.12 h -3.52 v -21.44 h 2.84 l 0.52,2.92 h 0.2 q 1,-1.68 2.68,-2.48 1.72,-0.84 3.64,-0.84 5.04,0 6.56,3.6 h 0.2 q 1.08,-1.84 2.92,-2.72 1.84,-0.88 3.96,-0.88 z"
         style=""
         id="path269" />
      <path
         d="m 1506.5791,-497.28148 q 3.92,0 5.8,1.72 1.88,1.72 1.88,5.48 v 14.6 h -2.56 l -0.68,-3.04 h -0.16 q -1.4,1.76 -2.96,2.6 -1.56,0.84 -4.24,0.84 -2.92,0 -4.84,-1.52 -1.92,-1.56 -1.92,-4.84 0,-3.2 2.52,-4.92 2.52,-1.76 7.76,-1.92 l 3.64,-0.12 v -1.28 q 0,-2.68 -1.16,-3.72 -1.16,-1.04 -3.28,-1.04 -1.68,0 -3.2,0.52 -1.52,0.48 -2.84,1.12 l -1.08,-2.64 q 1.4,-0.76 3.32,-1.28 1.92,-0.56 4,-0.56 z m 4.2,11.32 -3.16,0.12 q -4,0.16 -5.56,1.28 -1.52,1.12 -1.52,3.16 0,1.8 1.08,2.64 1.12,0.84 2.84,0.84 2.68,0 4.48,-1.48 1.84,-1.52 1.84,-4.64 z"
         style=""
         id="path271" />
    </g>
    <g
       aria-label="# SWAILaPaz"
       style="font-style:normal;font-variant:normal;font-weight:normal;font-stretch:normal;font-size:40px;line-height:1.25;font-family:'Noto Sans';-inkscape-font-specification:'Noto Sans';letter-spacing:0px;word-spacing:0px;fill:#e8c034;fill-opacity:1;stroke:none"
       id="text88">
      <path
         d="m 818.46068,-559.14355 -1.24,6.4 h 5.48 v 2.68 h -6 l -1.64,8.36 h -2.84 l 1.64,-8.36 h -5.72 l -1.56,8.36 h -2.8 l 1.52,-8.36 h -5.04 v -2.68 h 5.56 l 1.28,-6.4 h -5.36 v -2.64 h 5.84 l 1.6,-8.48 h 2.88 l -1.6,8.48 h 5.76 l 1.6,-8.48 h 2.76 l -1.6,8.48 h 5.08 v 2.64 z m -9.8,6.4 h 5.72 l 1.24,-6.4 h -5.72 z"
         style=""
         id="path234" />
      <path
         d="m 855.59068,-549.34355 q 0,3.8 -2.76,5.92 -2.76,2.12 -7.44,2.12 -2.4,0 -4.44,-0.36 -2.04,-0.36 -3.4,-1 v -3.44 q 1.44,0.64 3.56,1.16 2.16,0.52 4.44,0.52 3.16,0 4.8,-1.24 1.64,-1.24 1.64,-3.36 0,-1.4 -0.6,-2.36 -0.6,-0.96 -2.08,-1.76 -1.48,-0.8 -4.04,-1.76 -3.68,-1.32 -5.52,-3.24 -1.84,-1.92 -1.84,-5.24 0,-2.24 1.16,-3.88 1.16,-1.64 3.2,-2.52 2.04,-0.88 4.76,-0.88 2.32,0 4.28,0.44 1.96,0.44 3.6,1.16 l -1.12,3.08 q -1.48,-0.64 -3.24,-1.08 -1.76,-0.44 -3.6,-0.44 -2.68,0 -4.04,1.16 -1.36,1.12 -1.36,3 0,1.44 0.6,2.4 0.6,0.96 1.96,1.76 1.36,0.76 3.68,1.6 2.52,0.92 4.24,2 1.76,1.04 2.64,2.52 0.92,1.48 0.92,3.72 z"
         style=""
         id="path236" />
      <path
         d="m 894.14381,-570.26355 -7.6,28.56 h -3.64 l -5.56,-18.72 q -0.36,-1.12 -0.68,-2.28 -0.28,-1.2 -0.52,-2.08 -0.2,-0.92 -0.24,-1.28 -0.04,0.52 -0.44,2.24 -0.4,1.68 -0.92,3.52 l -5.4,18.6 h -3.64 l -7.56,-28.56 h 3.76 l 4.44,17.44 q 0.48,1.84 0.8,3.56 0.36,1.72 0.56,3.24 0.2,-1.56 0.6,-3.4 0.4,-1.84 0.92,-3.6 l 5.04,-17.24 h 3.72 l 5.24,17.36 q 0.56,1.84 0.96,3.68 0.4,1.84 0.6,3.2 0.16,-1.48 0.52,-3.2 0.4,-1.76 0.88,-3.64 l 4.4,-17.4 z"
         style=""
         id="path238" />
      <path
         d="m 914.88881,-541.70355 -3.44,-8.84 h -11.32 l -3.4,8.84 h -3.64 l 11.16,-28.68 h 3.24 l 11.12,28.68 z m -4.52,-12.04 -3.2,-8.64 q -0.12,-0.32 -0.4,-1.16 -0.28,-0.84 -0.56,-1.72 -0.24,-0.92 -0.4,-1.4 -0.32,1.24 -0.68,2.44 -0.32,1.16 -0.56,1.84 l -3.24,8.64 z"
         style=""
         id="path240" />
      <path
         d="m 930.55568,-541.70355 h -10.32 v -2.08 l 3.36,-0.76 v -22.84 l -3.36,-0.8 v -2.08 h 10.32 v 2.08 l -3.36,0.8 v 22.84 l 3.36,0.76 z"
         style=""
         id="path242" />
      <path
         d="m 936.10943,-541.70355 v -28.56 h 3.6 v 25.36 h 12.48 v 3.2 z"
         style=""
         id="path244" />
      <path
         d="m 964.68693,-563.50355 q 3.92,0 5.8,1.72 1.88,1.72 1.88,5.48 v 14.6 h -2.56 l -0.68,-3.04 h -0.16 q -1.4,1.76 -2.96,2.6 -1.56,0.84 -4.24,0.84 -2.92,0 -4.84,-1.52 -1.92,-1.56 -1.92,-4.84 0,-3.2 2.52,-4.92 2.52,-1.76 7.76,-1.92 l 3.64,-0.12 v -1.28 q 0,-2.68 -1.16,-3.72 -1.16,-1.04 -3.28,-1.04 -1.68,0 -3.2,0.52 -1.52,0.48 -2.84,1.12 l -1.08,-2.64 q 1.4,-0.76 3.32,-1.28 1.92,-0.56 4,-0.56 z m 4.2,11.32 -3.16,0.12 q -4,0.16 -5.56,1.28 -1.52,1.12 -1.52,3.16 0,1.8 1.08,2.64 1.12,0.84 2.84,0.84 2.68,0 4.48,-1.48 1.84,-1.52 1.84,-4.64 z"
         style=""
         id="path246" />
      <path
         d="m 987.02881,-570.26355 q 5.6,0 8.16,2.2 2.56,2.2 2.56,6.2 0,2.36 -1.08,4.44 -1.04,2.04 -3.56,3.32 -2.48,1.28 -6.76,1.28 h -3.28 v 11.12 h -3.6 v -28.56 z m -0.32,3.08 h -3.64 v 11.28 h 2.88 q 4.08,0 6.08,-1.32 2,-1.32 2,-4.48 0,-2.76 -1.8,-4.12 -1.76,-1.36 -5.52,-1.36 z"
         style=""
         id="path248" />
      <path
         d="m 1011.3276,-563.50355 q 3.92,0 5.8,1.72 1.88,1.72 1.88,5.48 v 14.6 h -2.56 l -0.68,-3.04 h -0.16 q -1.4,1.76 -2.96,2.6 -1.56,0.84 -4.24,0.84 -2.92,0 -4.84,-1.52 -1.92,-1.56 -1.92,-4.84 0,-3.2 2.52,-4.92 2.52,-1.76 7.76,-1.92 l 3.64,-0.12 v -1.28 q 0,-2.68 -1.16,-3.72 -1.16,-1.04 -3.28,-1.04 -1.68,0 -3.2,0.52 -1.52,0.48 -2.84,1.12 l -1.08,-2.64 q 1.4,-0.76 3.32,-1.28 1.92,-0.56 4,-0.56 z m 4.2,11.32 -3.16,0.12 q -4,0.16 -5.56,1.28 -1.52,1.12 -1.52,3.16 0,1.8 1.08,2.64 1.12,0.84 2.84,0.84 2.68,0 4.48,-1.48 1.84,-1.52 1.84,-4.64 z"
         style=""
         id="path250" />
      <path
         d="m 1039.4694,-541.70355 h -15.68 v -2.32 l 11.52,-16.4 h -10.84 v -2.72 h 14.72 v 2.64 l -11.36,16.08 h 11.64 z"
         style=""
         id="path252" />
    </g>
    <g
       aria-label="# SWAIBruxelles"
       style="font-style:normal;font-variant:normal;font-weight:normal;font-stretch:normal;font-size:40px;line-height:1.25;font-family:'Noto Sans';-inkscape-font-specification:'Noto Sans';letter-spacing:0px;word-spacing:0px;fill:#e8c034;fill-opacity:1;stroke:none"
       id="text92">
      <path
         d="m 917.03667,-492.46148 -1.24,6.4 h 5.48 v 2.68 h -6 l -1.64,8.36 h -2.84 l 1.64,-8.36 h -5.72 l -1.56,8.36 h -2.8 l 1.52,-8.36 h -5.04 v -2.68 h 5.56 l 1.28,-6.4 h -5.36 v -2.64 h 5.84 l 1.6,-8.48 h 2.88 l -1.6,8.48 h 5.76 l 1.6,-8.48 h 2.76 l -1.6,8.48 h 5.08 v 2.64 z m -9.8,6.4 h 5.72 l 1.24,-6.4 h -5.72 z"
         style=""
         id="path205" />
      <path
         d="m 954.16667,-482.66148 q 0,3.8 -2.76,5.92 -2.76,2.12 -7.44,2.12 -2.4,0 -4.44,-0.36 -2.04,-0.36 -3.4,-1 v -3.44 q 1.44,0.64 3.56,1.16 2.16,0.52 4.44,0.52 3.16,0 4.8,-1.24 1.64,-1.24 1.64,-3.36 0,-1.4 -0.6,-2.36 -0.6,-0.96 -2.08,-1.76 -1.48,-0.8 -4.04,-1.76 -3.68,-1.32 -5.52,-3.24 -1.84,-1.92 -1.84,-5.24 0,-2.24 1.16,-3.88 1.16,-1.64 3.2,-2.52 2.04,-0.88 4.76,-0.88 2.32,0 4.28,0.44 1.96,0.44 3.6,1.16 l -1.12,3.08 q -1.48,-0.64 -3.24,-1.08 -1.76,-0.44 -3.6,-0.44 -2.68,0 -4.04,1.16 -1.36,1.12 -1.36,3 0,1.44 0.6,2.4 0.6,0.96 1.96,1.76 1.36,0.76 3.68,1.6 2.52,0.92 4.24,2 1.76,1.04 2.64,2.52 0.92,1.48 0.92,3.72 z"
         style=""
         id="path207" />
      <path
         d="m 992.71979,-503.58148 -7.6,28.56 h -3.64 l -5.56,-18.72 q -0.36,-1.12 -0.68,-2.28 -0.28,-1.2 -0.52,-2.08 -0.2,-0.92 -0.24,-1.28 -0.04,0.52 -0.44,2.24 -0.4,1.68 -0.92,3.52 l -5.4,18.6 h -3.64 l -7.56,-28.56 h 3.76 l 4.44,17.44 q 0.48,1.84 0.8,3.56 0.36,1.72 0.56,3.24 0.2,-1.56 0.6,-3.4 0.4,-1.84 0.92,-3.6 l 5.04,-17.24 h 3.72 l 5.24,17.36 q 0.56,1.84 0.96,3.68 0.4,1.84 0.6,3.2 0.16,-1.48 0.52,-3.2 0.4,-1.76 0.88,-3.64 l 4.4,-17.4 z"
         style=""
         id="path209" />
      <path
         d="m 1013.4648,-475.02148 -3.44,-8.84 h -11.32001 l -3.4,8.84 h -3.64 l 11.16001,-28.68 h 3.24 l 11.12,28.68 z m -4.52,-12.04 -3.2,-8.64 q -0.12,-0.32 -0.4,-1.16 -0.28,-0.84 -0.56,-1.72 -0.24,-0.92 -0.4,-1.4 -0.32,1.24 -0.68,2.44 -0.32,1.16 -0.56,1.84 l -3.24001,8.64 z"
         style=""
         id="path211" />
      <path
         d="m 1029.1317,-475.02148 h -10.32 v -2.08 l 3.36,-0.76 v -22.84 l -3.36,-0.8 v -2.08 h 10.32 v 2.08 l -3.36,0.8 v 22.84 l 3.36,0.76 z"
         style=""
         id="path213" />
      <path
         d="m 1034.6854,-503.58148 h 8.16 q 5.32,0 8.08,1.6 2.76,1.6 2.76,5.48 0,2.52 -1.4,4.2 -1.4,1.64 -4.04,2.12 v 0.2 q 1.8,0.32 3.24,1.08 1.48,0.76 2.32,2.16 0.84,1.4 0.84,3.6 0,3.88 -2.68,6 -2.64,2.12 -7.24,2.12 h -10.04 z m 3.6,12.16 h 5.28 q 3.64,0 5,-1.16 1.4,-1.2 1.4,-3.52 0,-2.36 -1.68,-3.36 -1.64,-1.04 -5.28,-1.04 h -4.72 z m 0,3 v 10.36 h 5.76 q 3.8,0 5.28,-1.48 1.48,-1.48 1.48,-3.88 0,-2.24 -1.56,-3.6 -1.52,-1.4 -5.48,-1.4 z"
         style=""
         id="path215" />
      <path
         d="m 1070.221,-496.86148 q 0.6,0 1.28,0.08 0.68,0.04 1.24,0.16 l -0.44,3.24 q -0.52,-0.12 -1.16,-0.2 -0.64,-0.08 -1.16,-0.08 -1.64,0 -3.08,0.92 -1.44,0.88 -2.32,2.52 -0.84,1.6 -0.84,3.76 v 11.44 h -3.52 v -21.44 h 2.88 l 0.4,3.92 h 0.16 q 1,-1.76 2.64,-3.04 1.68,-1.28 3.92,-1.28 z"
         style=""
         id="path217" />
      <path
         d="m 1094.6254,-496.46148 v 21.44 h -2.88 l -0.52,-2.84 h -0.16 q -1.04,1.68 -2.88,2.48 -1.84,0.76 -3.92,0.76 -3.88,0 -5.84,-1.84 -1.96,-1.88 -1.96,-5.96 v -14.04 h 3.56 v 13.8 q 0,5.12 4.76,5.12 3.56,0 4.92,-2 1.4,-2 1.4,-5.76 v -11.16 z"
         style=""
         id="path219" />
      <path
         d="m 1106.4729,-485.98148 -7.4,-10.48 h 4 l 5.52,8.08 5.48,-8.08 h 3.96 l -7.4,10.48 7.8,10.96 h -4 l -5.84,-8.56 -5.92,8.56 h -3.96 z"
         style=""
         id="path221" />
      <path
         d="m 1130.0635,-496.86148 q 2.72,0 4.72,1.2 2,1.2 3.04,3.4 1.08,2.16 1.08,5.08 v 2.12 h -14.68 q 0.08,3.64 1.84,5.56 1.8,1.88 5,1.88 2.04,0 3.6,-0.36 1.6,-0.4 3.28,-1.12 v 3.08 q -1.64,0.72 -3.24,1.04 -1.6,0.36 -3.8,0.36 -3.08,0 -5.4,-1.24 -2.32,-1.24 -3.64,-3.68 -1.28,-2.44 -1.28,-6.04 0,-3.52 1.16,-6.04 1.2,-2.52 3.32,-3.88 2.16,-1.36 5,-1.36 z m -0.04,2.88 q -2.52,0 -4,1.64 -1.44,1.6 -1.72,4.48 h 10.92 q -0.04,-2.72 -1.28,-4.4 -1.24,-1.72 -3.92,-1.72 z"
         style=""
         id="path223" />
      <path
         d="m 1147.8817,-475.02148 h -3.52 v -30.4 h 3.52 z"
         style=""
         id="path225" />
      <path
         d="m 1158.1942,-475.02148 h -3.52 v -30.4 h 3.52 z"
         style=""
         id="path227" />
      <path
         d="m 1173.2667,-496.86148 q 2.72,0 4.72,1.2 2,1.2 3.04,3.4 1.08,2.16 1.08,5.08 v 2.12 h -14.68 q 0.08,3.64 1.84,5.56 1.8,1.88 5,1.88 2.04,0 3.6,-0.36 1.6,-0.4 3.28,-1.12 v 3.08 q -1.64,0.72 -3.24,1.04 -1.6,0.36 -3.8,0.36 -3.08,0 -5.4,-1.24 -2.32,-1.24 -3.64,-3.68 -1.28,-2.44 -1.28,-6.04 0,-3.52 1.16,-6.04 1.2,-2.52 3.32,-3.88 2.16,-1.36 5,-1.36 z m -0.04,2.88 q -2.52,0 -4,1.64 -1.44,1.6 -1.72,4.48 h 10.92 q -0.04,-2.72 -1.28,-4.4 -1.24,-1.72 -3.92,-1.72 z"
         style=""
         id="path229" />
      <path
         d="m 1201.5248,-480.94148 q 0,3.12 -2.32,4.72 -2.32,1.6 -6.24,1.6 -2.24,0 -3.88,-0.36 -1.6,-0.36 -2.84,-1 v -3.2 q 1.28,0.64 3.08,1.2 1.84,0.52 3.72,0.52 2.68,0 3.88,-0.84 1.2,-0.88 1.2,-2.32 0,-0.8 -0.44,-1.44 -0.44,-0.64 -1.6,-1.28 -1.12,-0.64 -3.24,-1.44 -2.08,-0.8 -3.56,-1.6 -1.48,-0.8 -2.28,-1.92 -0.8,-1.12 -0.8,-2.88 0,-2.72 2.2,-4.2 2.24,-1.48 5.84,-1.48 1.96,0 3.64,0.4 1.72,0.4 3.2,1.04 l -1.2,2.8 q -1.36,-0.56 -2.84,-0.96 -1.48,-0.4 -3.04,-0.4 -2.16,0 -3.32,0.72 -1.12,0.68 -1.12,1.88 0,0.92 0.52,1.52 0.52,0.6 1.72,1.2 1.24,0.6 3.28,1.36 2.04,0.76 3.48,1.56 1.44,0.8 2.2,1.96 0.76,1.12 0.76,2.84 z"
         style=""
         id="path231" />
    </g>
    <g
       aria-label="# SWAIParis"
       style="font-style:normal;font-variant:normal;font-weight:normal;font-stretch:normal;font-size:40px;line-height:1.25;font-family:'Noto Sans';-inkscape-font-specification:'Noto Sans';letter-spacing:0px;word-spacing:0px;fill:#e8c034;fill-opacity:1;stroke:none"
       id="text96">
      <path
         d="m 1210.1497,-436.51529 -1.24,6.4 h 5.48 v 2.68 h -6 l -1.64,8.36 h -2.84 l 1.64,-8.36 h -5.72 l -1.56,8.36 h -2.8 l 1.52,-8.36 h -5.04 v -2.68 h 5.56 l 1.28,-6.4 h -5.36 v -2.64 h 5.84 l 1.6,-8.48 h 2.88 l -1.6,8.48 h 5.76 l 1.6,-8.48 h 2.76 l -1.6,8.48 h 5.08 v 2.64 z m -9.8,6.4 h 5.72 l 1.24,-6.4 h -5.72 z"
         style=""
         id="path184" />
      <path
         d="m 1247.2797,-426.71529 q 0,3.8 -2.76,5.92 -2.76,2.12 -7.44,2.12 -2.4,0 -4.44,-0.36 -2.04,-0.36 -3.4,-1 v -3.44 q 1.44,0.64 3.56,1.16 2.16,0.52 4.44,0.52 3.16,0 4.8,-1.24 1.64,-1.24 1.64,-3.36 0,-1.4 -0.6,-2.36 -0.6,-0.96 -2.08,-1.76 -1.48,-0.8 -4.04,-1.76 -3.68,-1.32 -5.52,-3.24 -1.84,-1.92 -1.84,-5.24 0,-2.24 1.16,-3.88 1.16,-1.64 3.2,-2.52 2.04,-0.88 4.76,-0.88 2.32,0 4.28,0.44 1.96,0.44 3.6,1.16 l -1.12,3.08 q -1.48,-0.64 -3.24,-1.08 -1.76,-0.44 -3.6,-0.44 -2.68,0 -4.04,1.16 -1.36,1.12 -1.36,3 0,1.44 0.6,2.4 0.6,0.96 1.96,1.76 1.36,0.76 3.68,1.6 2.52,0.92 4.24,2 1.76,1.04 2.64,2.52 0.92,1.48 0.92,3.72 z"
         style=""
         id="path186" />
      <path
         d="m 1285.8328,-447.63529 -7.6,28.56 h -3.64 l -5.56,-18.72 q -0.36,-1.12 -0.68,-2.28 -0.28,-1.2 -0.52,-2.08 -0.2,-0.92 -0.24,-1.28 -0.04,0.52 -0.44,2.24 -0.4,1.68 -0.92,3.52 l -5.4,18.6 h -3.64 l -7.56,-28.56 h 3.76 l 4.44,17.44 q 0.48,1.84 0.8,3.56 0.36,1.72 0.56,3.24 0.2,-1.56 0.6,-3.4 0.4,-1.84 0.92,-3.6 l 5.04,-17.24 h 3.72 l 5.24,17.36 q 0.56,1.84 0.96,3.68 0.4,1.84 0.6,3.2 0.16,-1.48 0.52,-3.2 0.4,-1.76 0.88,-3.64 l 4.4,-17.4 z"
         style=""
         id="path188" />
      <path
         d="m 1306.5778,-419.07529 -3.44,-8.84 h -11.32 l -3.4,8.84 h -3.64 l 11.16,-28.68 h 3.24 l 11.12,28.68 z m -4.52,-12.04 -3.2,-8.64 q -0.12,-0.32 -0.4,-1.16 -0.28,-0.84 -0.56,-1.72 -0.24,-0.92 -0.4,-1.4 -0.32,1.24 -0.68,2.44 -0.32,1.16 -0.56,1.84 l -3.24,8.64 z"
         style=""
         id="path190" />
      <path
         d="m 1322.2447,-419.07529 h -10.32 v -2.08 l 3.36,-0.76 v -22.84 l -3.36,-0.8 v -2.08 h 10.32 v 2.08 l -3.36,0.8 v 22.84 l 3.36,0.76 z"
         style=""
         id="path192" />
      <path
         d="m 1335.3585,-447.63529 q 5.6,0 8.16,2.2 2.56,2.2 2.56,6.2 0,2.36 -1.08,4.44 -1.04,2.04 -3.56,3.32 -2.48,1.28 -6.76,1.28 h -3.28 v 11.12 h -3.6 v -28.56 z m -0.32,3.08 h -3.64 v 11.28 h 2.88 q 4.08,0 6.08,-1.32 2,-1.32 2,-4.48 0,-2.76 -1.8,-4.12 -1.76,-1.36 -5.52,-1.36 z"
         style=""
         id="path194" />
      <path
         d="m 1359.6572,-440.87529 q 3.92,0 5.8,1.72 1.88,1.72 1.88,5.48 v 14.6 h -2.56 l -0.68,-3.04 h -0.16 q -1.4,1.76 -2.96,2.6 -1.56,0.84 -4.24,0.84 -2.92,0 -4.84,-1.52 -1.92,-1.56 -1.92,-4.84 0,-3.2 2.52,-4.92 2.52,-1.76 7.76,-1.92 l 3.64,-0.12 v -1.28 q 0,-2.68 -1.16,-3.72 -1.16,-1.04 -3.28,-1.04 -1.68,0 -3.2,0.52 -1.52,0.48 -2.84,1.12 l -1.08,-2.64 q 1.4,-0.76 3.32,-1.28 1.92,-0.56 4,-0.56 z m 4.2,11.32 -3.16,0.12 q -4,0.16 -5.56,1.28 -1.52,1.12 -1.52,3.16 0,1.8 1.08,2.64 1.12,0.84 2.84,0.84 2.68,0 4.48,-1.48 1.84,-1.52 1.84,-4.64 z"
         style=""
         id="path196" />
      <path
         d="m 1383.9591,-440.91529 q 0.6,0 1.28,0.08 0.68,0.04 1.24,0.16 l -0.44,3.24 q -0.52,-0.12 -1.16,-0.2 -0.64,-0.08 -1.16,-0.08 -1.64,0 -3.08,0.92 -1.44,0.88 -2.32,2.52 -0.84,1.6 -0.84,3.76 v 11.44 h -3.52 v -21.44 h 2.88 l 0.4,3.92 h 0.16 q 1,-1.76 2.64,-3.04 1.68,-1.28 3.92,-1.28 z"
         style=""
         id="path198" />
      <path
         d="m 1392.2435,-448.55529 q 0.8,0 1.4,0.56 0.64,0.52 0.64,1.68 0,1.16 -0.64,1.72 -0.6,0.52 -1.4,0.52 -0.88,0 -1.48,-0.52 -0.6,-0.56 -0.6,-1.72 0,-1.16 0.6,-1.68 0.6,-0.56 1.48,-0.56 z m 1.72,8.04 v 21.44 h -3.52 v -21.44 z"
         style=""
         id="path200" />
      <path
         d="m 1414.716,-424.99529 q 0,3.12 -2.32,4.72 -2.32,1.6 -6.24,1.6 -2.24,0 -3.88,-0.36 -1.6,-0.36 -2.84,-1 v -3.2 q 1.28,0.64 3.08,1.2 1.84,0.52 3.72,0.52 2.68,0 3.88,-0.84 1.2,-0.88 1.2,-2.32 0,-0.8 -0.44,-1.44 -0.44,-0.64 -1.6,-1.28 -1.12,-0.64 -3.24,-1.44 -2.08,-0.8 -3.56,-1.6 -1.48,-0.8 -2.28,-1.92 -0.8,-1.12 -0.8,-2.88 0,-2.72 2.2,-4.2 2.24,-1.48 5.84,-1.48 1.96,0 3.64,0.4 1.72,0.4 3.2,1.04 l -1.2,2.8 q -1.36,-0.56 -2.84,-0.96 -1.48,-0.4 -3.04,-0.4 -2.16,0 -3.32,0.72 -1.12,0.68 -1.12,1.88 0,0.92 0.52,1.52 0.52,0.6 1.72,1.2 1.24,0.6 3.28,1.36 2.04,0.76 3.48,1.56 1.44,0.8 2.2,1.96 0.76,1.12 0.76,2.84 z"
         style=""
         id="path202" />
    </g>
    <g
       aria-label="# SWAICarthage"
       style="font-style:normal;font-variant:normal;font-weight:normal;font-stretch:normal;font-size:40px;line-height:1.25;font-family:'Noto Sans';-inkscape-font-specification:'Noto Sans';letter-spacing:0px;word-spacing:0px;fill:#e8c034;fill-opacity:1;stroke:none"
       id="text100">
      <path
         d="m 1499.6171,-440.6553 -1.24,6.4 h 5.48 v 2.68 h -6 l -1.64,8.36 h -2.84 l 1.64,-8.36 h -5.72 l -1.56,8.36 h -2.8 l 1.52,-8.36 h -5.04 v -2.68 h 5.56 l 1.28,-6.4 h -5.36 v -2.64 h 5.84 l 1.6,-8.48 h 2.88 l -1.6,8.48 h 5.76 l 1.6,-8.48 h 2.76 l -1.6,8.48 h 5.08 v 2.64 z m -9.8,6.4 h 5.72 l 1.24,-6.4 h -5.72 z"
         style=""
         id="path157" />
      <path
         d="m 1536.7471,-430.8553 q 0,3.8 -2.76,5.92 -2.76,2.12 -7.44,2.12 -2.4,0 -4.44,-0.36 -2.04,-0.36 -3.4,-1 v -3.44 q 1.44,0.64 3.56,1.16 2.16,0.52 4.44,0.52 3.16,0 4.8,-1.24 1.64,-1.24 1.64,-3.36 0,-1.4 -0.6,-2.36 -0.6,-0.96 -2.08,-1.76 -1.48,-0.8 -4.04,-1.76 -3.68,-1.32 -5.52,-3.24 -1.84,-1.92 -1.84,-5.24 0,-2.24 1.16,-3.88 1.16,-1.64 3.2,-2.52 2.04,-0.88 4.76,-0.88 2.32,0 4.28,0.44 1.96,0.44 3.6,1.16 l -1.12,3.08 q -1.48,-0.64 -3.24,-1.08 -1.76,-0.44 -3.6,-0.44 -2.68,0 -4.04,1.16 -1.36,1.12 -1.36,3 0,1.44 0.6,2.4 0.6,0.96 1.96,1.76 1.36,0.76 3.68,1.6 2.52,0.92 4.24,2 1.76,1.04 2.64,2.52 0.92,1.48 0.92,3.72 z"
         style=""
         id="path159" />
      <path
         d="m 1575.3002,-451.7753 -7.6,28.56 h -3.64 l -5.56,-18.72 q -0.36,-1.12 -0.68,-2.28 -0.28,-1.2 -0.52,-2.08 -0.2,-0.92 -0.24,-1.28 -0.04,0.52 -0.44,2.24 -0.4,1.68 -0.92,3.52 l -5.4,18.6 h -3.64 l -7.56,-28.56 h 3.76 l 4.44,17.44 q 0.48,1.84 0.8,3.56 0.36,1.72 0.56,3.24 0.2,-1.56 0.6,-3.4 0.4,-1.84 0.92,-3.6 l 5.04,-17.24 h 3.72 l 5.24,17.36 q 0.56,1.84 0.96,3.68 0.4,1.84 0.6,3.2 0.16,-1.48 0.52,-3.2 0.4,-1.76 0.88,-3.64 l 4.4,-17.4 z"
         style=""
         id="path161" />
      <path
         d="m 1596.0452,-423.2153 -3.44,-8.84 h -11.32 l -3.4,8.84 h -3.64 l 11.16,-28.68 h 3.24 l 11.12,28.68 z m -4.52,-12.04 -3.2,-8.64 q -0.12,-0.32 -0.4,-1.16 -0.28,-0.84 -0.56,-1.72 -0.24,-0.92 -0.4,-1.4 -0.32,1.24 -0.68,2.44 -0.32,1.16 -0.56,1.84 l -3.24,8.64 z"
         style=""
         id="path163" />
      <path
         d="m 1611.7121,-423.2153 h -10.32 v -2.08 l 3.36,-0.76 v -22.84 l -3.36,-0.8 v -2.08 h 10.32 v 2.08 l -3.36,0.8 v 22.84 l 3.36,0.76 z"
         style=""
         id="path165" />
      <path
         d="m 1629.5059,-449.0153 q -4.6,0 -7.24,3.08 -2.64,3.08 -2.64,8.44 0,5.32 2.44,8.44 2.48,3.08 7.4,3.08 1.84,0 3.52,-0.32 1.68,-0.32 3.32,-0.8 v 3.12 q -1.6,0.6 -3.32,0.88 -1.68,0.28 -4.04,0.28 -4.36,0 -7.28,-1.8 -2.92,-1.8 -4.4,-5.12 -1.44,-3.32 -1.44,-7.8 0,-4.32 1.56,-7.6 1.6,-3.32 4.68,-5.16 3.08,-1.88 7.48,-1.88 4.52,0 7.88,1.68 l -1.44,3.04 q -1.32,-0.6 -2.96,-1.08 -1.6,-0.48 -3.52,-0.48 z"
         style=""
         id="path167" />
      <path
         d="m 1650.2184,-445.0153 q 3.92,0 5.8,1.72 1.88,1.72 1.88,5.48 v 14.6 h -2.56 l -0.68,-3.04 h -0.16 q -1.4,1.76 -2.96,2.6 -1.56,0.84 -4.24,0.84 -2.92,0 -4.84,-1.52 -1.92,-1.56 -1.92,-4.84 0,-3.2 2.52,-4.92 2.52,-1.76 7.76,-1.92 l 3.64,-0.12 v -1.28 q 0,-2.68 -1.16,-3.72 -1.16,-1.04 -3.28,-1.04 -1.68,0 -3.2,0.52 -1.52,0.48 -2.84,1.12 l -1.08,-2.64 q 1.4,-0.76 3.32,-1.28 1.92,-0.56 4,-0.56 z m 4.2,11.32 -3.16,0.12 q -4,0.16 -5.56,1.28 -1.52,1.12 -1.52,3.16 0,1.8 1.08,2.64 1.12,0.84 2.84,0.84 2.68,0 4.48,-1.48 1.84,-1.52 1.84,-4.64 z"
         style=""
         id="path169" />
      <path
         d="m 1674.5202,-445.0553 q 0.6,0 1.28,0.08 0.68,0.04 1.24,0.16 l -0.44,3.24 q -0.52,-0.12 -1.16,-0.2 -0.64,-0.08 -1.16,-0.08 -1.64,0 -3.08,0.92 -1.44,0.88 -2.32,2.52 -0.84,1.6 -0.84,3.76 v 11.44 h -3.52 v -21.44 h 2.88 l 0.4,3.92 h 0.16 q 1,-1.76 2.64,-3.04 1.68,-1.28 3.92,-1.28 z"
         style=""
         id="path171" />
      <path
         d="m 1688.1646,-425.6953 q 0.8,0 1.64,-0.12 0.84,-0.12 1.36,-0.32 v 2.68 q -0.56,0.28 -1.6,0.44 -1.04,0.2 -2,0.2 -1.68,0 -3.12,-0.56 -1.4,-0.6 -2.28,-2.04 -0.88,-1.44 -0.88,-4.04 v -12.48 h -3.04 v -1.68 l 3.08,-1.4 1.4,-4.56 h 2.08 v 4.92 h 6.2 v 2.72 h -6.2 v 12.4 q 0,1.96 0.92,2.92 0.96,0.92 2.44,0.92 z"
         style=""
         id="path173" />
      <path
         d="m 1698.9777,-453.6153 v 8.92 q 0,1.6 -0.2,3 h 0.24 q 1.04,-1.64 2.8,-2.48 1.8,-0.84 3.88,-0.84 3.88,0 5.84,1.88 2,1.84 2,5.96 v 13.96 h -3.48 v -13.72 q 0,-5.16 -4.8,-5.16 -3.6,0 -4.96,2.04 -1.32,2 -1.32,5.76 v 11.08 h -3.52 v -30.4 z"
         style=""
         id="path175" />
      <path
         d="m 1728.2652,-445.0153 q 3.92,0 5.8,1.72 1.88,1.72 1.88,5.48 v 14.6 h -2.56 l -0.68,-3.04 h -0.16 q -1.4,1.76 -2.96,2.6 -1.56,0.84 -4.24,0.84 -2.92,0 -4.84,-1.52 -1.92,-1.56 -1.92,-4.84 0,-3.2 2.52,-4.92 2.52,-1.76 7.76,-1.92 l 3.64,-0.12 v -1.28 q 0,-2.68 -1.16,-3.72 -1.16,-1.04 -3.28,-1.04 -1.68,0 -3.2,0.52 -1.52,0.48 -2.84,1.12 l -1.08,-2.64 q 1.4,-0.76 3.32,-1.28 1.92,-0.56 4,-0.56 z m 4.2,11.32 -3.16,0.12 q -4,0.16 -5.56,1.28 -1.52,1.12 -1.52,3.16 0,1.8 1.08,2.64 1.12,0.84 2.84,0.84 2.68,0 4.48,-1.48 1.84,-1.52 1.84,-4.64 z"
         style=""
         id="path177" />
      <path
         d="m 1750.1671,-445.0553 q 2.12,0 3.8,0.8 1.72,0.8 2.92,2.44 h 0.2 l 0.48,-2.84 h 2.8 v 21.8 q 0,4.6 -2.36,6.92 -2.32,2.32 -7.24,2.32 -4.72,0 -7.72,-1.36 v -3.24 q 3.16,1.68 7.92,1.68 2.76,0 4.32,-1.64 1.6,-1.6 1.6,-4.4 v -0.84 q 0,-0.48 0.04,-1.36 0.04,-0.92 0.08,-1.28 h -0.16 q -2.16,3.24 -6.64,3.24 -4.16,0 -6.52,-2.92 -2.32,-2.92 -2.32,-8.16 0,-5.12 2.32,-8.12 2.36,-3.04 6.48,-3.04 z m 0.48,2.96 q -2.68,0 -4.16,2.16 -1.48,2.12 -1.48,6.08 0,3.96 1.44,6.08 1.44,2.08 4.28,2.08 3.24,0 4.72,-1.72 1.48,-1.76 1.48,-5.64 v -0.84 q 0,-4.36 -1.52,-6.28 -1.52,-1.92 -4.76,-1.92 z"
         style=""
         id="path179" />
      <path
         d="m 1775.4565,-445.0553 q 2.72,0 4.72,1.2 2,1.2 3.04,3.4 1.08,2.16 1.08,5.08 v 2.12 h -14.68 q 0.08,3.64 1.84,5.56 1.8,1.88 5,1.88 2.04,0 3.6,-0.36 1.6,-0.4 3.28,-1.12 v 3.08 q -1.64,0.72 -3.24,1.04 -1.6,0.36 -3.8,0.36 -3.08,0 -5.4,-1.24 -2.32,-1.24 -3.64,-3.68 -1.28,-2.44 -1.28,-6.04 0,-3.52 1.16,-6.04 1.2,-2.52 3.32,-3.88 2.16,-1.36 5,-1.36 z m -0.04,2.88 q -2.52,0 -4,1.64 -1.44,1.6 -1.72,4.48 h 10.92 q -0.04,-2.72 -1.28,-4.4 -1.24,-1.72 -3.92,-1.72 z"
         style=""
         id="path181" />
    </g>
    <g
       aria-label="# SWAIDouala"
       style="font-style:normal;font-variant:normal;font-weight:normal;font-stretch:normal;font-size:40px;line-height:1.25;font-family:'Noto Sans';-inkscape-font-specification:'Noto Sans';letter-spacing:0px;word-spacing:0px;fill:#e8c034;fill-opacity:1;stroke:none"
       id="text104">
      <path
         d="m 1146.0652,-558.42358 -1.24,6.4 h 5.48 v 2.68 h -6 l -1.64,8.36 h -2.84 l 1.64,-8.36 h -5.72 l -1.56,8.36 h -2.8 l 1.52,-8.36 h -5.04 v -2.68 h 5.56 l 1.28,-6.4 h -5.36 v -2.64 h 5.84 l 1.6,-8.48 h 2.88 l -1.6,8.48 h 5.76 l 1.6,-8.48 h 2.76 l -1.6,8.48 h 5.08 v 2.64 z m -9.8,6.4 h 5.72 l 1.24,-6.4 h -5.72 z"
         style=""
         id="path134" />
      <path
         d="m 1183.1952,-548.62358 q 0,3.8 -2.76,5.92 -2.76,2.12 -7.44,2.12 -2.4,0 -4.44,-0.36 -2.04,-0.36 -3.4,-1 v -3.44 q 1.44,0.64 3.56,1.16 2.16,0.52 4.44,0.52 3.16,0 4.8,-1.24 1.64,-1.24 1.64,-3.36 0,-1.4 -0.6,-2.36 -0.6,-0.96 -2.08,-1.76 -1.48,-0.8 -4.04,-1.76 -3.68,-1.32 -5.52,-3.24 -1.84,-1.92 -1.84,-5.24 0,-2.24 1.16,-3.88 1.16,-1.64 3.2,-2.52 2.04,-0.88 4.76,-0.88 2.32,0 4.28,0.44 1.96,0.44 3.6,1.16 l -1.12,3.08 q -1.48,-0.64 -3.24,-1.08 -1.76,-0.44 -3.6,-0.44 -2.68,0 -4.04,1.16 -1.36,1.12 -1.36,3 0,1.44 0.6,2.4 0.6,0.96 1.96,1.76 1.36,0.76 3.68,1.6 2.52,0.92 4.24,2 1.76,1.04 2.64,2.52 0.92,1.48 0.92,3.72 z"
         style=""
         id="path136" />
      <path
         d="m 1221.7484,-569.54358 -7.6,28.56 h -3.64 l -5.56,-18.72 q -0.36,-1.12 -0.68,-2.28 -0.28,-1.2 -0.52,-2.08 -0.2,-0.92 -0.24,-1.28 -0.04,0.52 -0.44,2.24 -0.4,1.68 -0.92,3.52 l -5.4,18.6 h -3.64 l -7.56,-28.56 h 3.76 l 4.44,17.44 q 0.48,1.84 0.8,3.56 0.36,1.72 0.56,3.24 0.2,-1.56 0.6,-3.4 0.4,-1.84 0.92,-3.6 l 5.04,-17.24 h 3.72 l 5.24,17.36 q 0.56,1.84 0.96,3.68 0.4,1.84 0.6,3.2 0.16,-1.48 0.52,-3.2 0.4,-1.76 0.88,-3.64 l 4.4,-17.4 z"
         style=""
         id="path138" />
      <path
         d="m 1242.4934,-540.98358 -3.44,-8.84 h -11.32 l -3.4,8.84 h -3.64 l 11.16,-28.68 h 3.24 l 11.12,28.68 z m -4.52,-12.04 -3.2,-8.64 q -0.12,-0.32 -0.4,-1.16 -0.28,-0.84 -0.56,-1.72 -0.24,-0.92 -0.4,-1.4 -0.32,1.24 -0.68,2.44 -0.32,1.16 -0.56,1.84 l -3.24,8.64 z"
         style=""
         id="path140" />
      <path
         d="m 1258.1602,-540.98358 h -10.32 v -2.08 l 3.36,-0.76 v -22.84 l -3.36,-0.8 v -2.08 h 10.32 v 2.08 l -3.36,0.8 v 22.84 l 3.36,0.76 z"
         style=""
         id="path142" />
      <path
         d="m 1286.594,-555.54358 q 0,7.24 -3.96,10.92 -3.92,3.64 -10.96,3.64 h -7.96 v -28.56 h 8.8 q 4.28,0 7.44,1.6 3.2,1.6 4.92,4.72 1.72,3.12 1.72,7.68 z m -3.8,0.12 q 0,-5.72 -2.84,-8.36 -2.8,-2.68 -7.96,-2.68 h -4.68 v 22.4 h 3.88 q 11.6,0 11.6,-11.36 z"
         style=""
         id="path144" />
      <path
         d="m 1311.0927,-551.74358 q 0,5.32 -2.72,8.24 -2.68,2.92 -7.28,2.92 -2.84,0 -5.08,-1.28 -2.2,-1.32 -3.48,-3.8 -1.28,-2.52 -1.28,-6.08 0,-5.32 2.64,-8.2 2.68,-2.88 7.32,-2.88 2.88,0 5.12,1.32 2.24,1.28 3.48,3.76 1.28,2.44 1.28,6 z m -16.2,0 q 0,3.8 1.48,6.04 1.52,2.2 4.8,2.2 3.24,0 4.76,-2.2 1.52,-2.24 1.52,-6.04 0,-3.8 -1.52,-5.96 -1.52,-2.16 -4.8,-2.16 -3.28,0 -4.76,2.16 -1.48,2.16 -1.48,5.96 z"
         style=""
         id="path146" />
      <path
         d="m 1334.5915,-562.42358 v 21.44 h -2.88 l -0.52,-2.84 h -0.16 q -1.04,1.68 -2.88,2.48 -1.84,0.76 -3.92,0.76 -3.88,0 -5.84,-1.84 -1.96,-1.88 -1.96,-5.96 v -14.04 h 3.56 v 13.8 q 0,5.12 4.76,5.12 3.56,0 4.92,-2 1.4,-2 1.4,-5.76 v -11.16 z"
         style=""
         id="path148" />
      <path
         d="m 1349.479,-562.78358 q 3.92,0 5.8,1.72 1.88,1.72 1.88,5.48 v 14.6 h -2.56 l -0.68,-3.04 h -0.16 q -1.4,1.76 -2.96,2.6 -1.56,0.84 -4.24,0.84 -2.92,0 -4.84,-1.52 -1.92,-1.56 -1.92,-4.84 0,-3.2 2.52,-4.92 2.52,-1.76 7.76,-1.92 l 3.64,-0.12 v -1.28 q 0,-2.68 -1.16,-3.72 -1.16,-1.04 -3.28,-1.04 -1.68,0 -3.2,0.52 -1.52,0.48 -2.84,1.12 l -1.08,-2.64 q 1.4,-0.76 3.32,-1.28 1.92,-0.56 4,-0.56 z m 4.2,11.32 -3.16,0.12 q -4,0.16 -5.56,1.28 -1.52,1.12 -1.52,3.16 0,1.8 1.08,2.64 1.12,0.84 2.84,0.84 2.68,0 4.48,-1.48 1.84,-1.52 1.84,-4.64 z"
         style=""
         id="path150" />
      <path
         d="m 1367.3009,-540.98358 h -3.52 v -30.4 h 3.52 z"
         style=""
         id="path152" />
      <path
         d="m 1382.2134,-562.78358 q 3.92,0 5.8,1.72 1.88,1.72 1.88,5.48 v 14.6 h -2.56 l -0.68,-3.04 h -0.16 q -1.4,1.76 -2.96,2.6 -1.56,0.84 -4.24,0.84 -2.92,0 -4.84,-1.52 -1.92,-1.56 -1.92,-4.84 0,-3.2 2.52,-4.92 2.52,-1.76 7.76,-1.92 l 3.64,-0.12 v -1.28 q 0,-2.68 -1.16,-3.72 -1.16,-1.04 -3.28,-1.04 -1.68,0 -3.2,0.52 -1.52,0.48 -2.84,1.12 l -1.08,-2.64 q 1.4,-0.76 3.32,-1.28 1.92,-0.56 4,-0.56 z m 4.2,11.32 -3.16,0.12 q -4,0.16 -5.56,1.28 -1.52,1.12 -1.52,3.16 0,1.8 1.08,2.64 1.12,0.84 2.84,0.84 2.68,0 4.48,-1.48 1.84,-1.52 1.84,-4.64 z"
         style=""
         id="path154" />
    </g>
    <g
       aria-label="# SWAIIstanbul"
       style="font-style:normal;font-variant:normal;font-weight:normal;font-stretch:normal;font-size:40px;line-height:1.25;font-family:'Noto Sans';-inkscape-font-specification:'Noto Sans';letter-spacing:0px;word-spacing:0px;fill:#e8c034;fill-opacity:1;stroke:none"
       id="text108">
      <path
         d="m 1480.7483,-558.42358 -1.24,6.4 h 5.48 v 2.68 h -6 l -1.64,8.36 h -2.84 l 1.64,-8.36 h -5.72 l -1.56,8.36 h -2.8 l 1.52,-8.36 h -5.04 v -2.68 h 5.56 l 1.28,-6.4 h -5.36 v -2.64 h 5.84 l 1.6,-8.48 h 2.88 l -1.6,8.48 h 5.76 l 1.6,-8.48 h 2.76 l -1.6,8.48 h 5.08 v 2.64 z m -9.8,6.4 h 5.72 l 1.24,-6.4 h -5.72 z"
         style=""
         id="path107" />
      <path
         d="m 1517.8783,-548.62358 q 0,3.8 -2.76,5.92 -2.76,2.12 -7.44,2.12 -2.4,0 -4.44,-0.36 -2.04,-0.36 -3.4,-1 v -3.44 q 1.44,0.64 3.56,1.16 2.16,0.52 4.44,0.52 3.16,0 4.8,-1.24 1.64,-1.24 1.64,-3.36 0,-1.4 -0.6,-2.36 -0.6,-0.96 -2.08,-1.76 -1.48,-0.8 -4.04,-1.76 -3.68,-1.32 -5.52,-3.24 -1.84,-1.92 -1.84,-5.24 0,-2.24 1.16,-3.88 1.16,-1.64 3.2,-2.52 2.04,-0.88 4.76,-0.88 2.32,0 4.28,0.44 1.96,0.44 3.6,1.16 l -1.12,3.08 q -1.48,-0.64 -3.24,-1.08 -1.76,-0.44 -3.6,-0.44 -2.68,0 -4.04,1.16 -1.36,1.12 -1.36,3 0,1.44 0.6,2.4 0.6,0.96 1.96,1.76 1.36,0.76 3.68,1.6 2.52,0.92 4.24,2 1.76,1.04 2.64,2.52 0.92,1.48 0.92,3.72 z"
         style=""
         id="path109" />
      <path
         d="m 1556.4315,-569.54358 -7.6,28.56 h -3.64 l -5.56,-18.72 q -0.36,-1.12 -0.68,-2.28 -0.28,-1.2 -0.52,-2.08 -0.2,-0.92 -0.24,-1.28 -0.04,0.52 -0.44,2.24 -0.4,1.68 -0.92,3.52 l -5.4,18.6 h -3.64 l -7.56,-28.56 h 3.76 l 4.44,17.44 q 0.48,1.84 0.8,3.56 0.36,1.72 0.56,3.24 0.2,-1.56 0.6,-3.4 0.4,-1.84 0.92,-3.6 l 5.04,-17.24 h 3.72 l 5.24,17.36 q 0.56,1.84 0.96,3.68 0.4,1.84 0.6,3.2 0.16,-1.48 0.52,-3.2 0.4,-1.76 0.88,-3.64 l 4.4,-17.4 z"
         style=""
         id="path111" />
      <path
         d="m 1577.1765,-540.98358 -3.44,-8.84 h -11.32 l -3.4,8.84 h -3.64 l 11.16,-28.68 h 3.24 l 11.12,28.68 z m -4.52,-12.04 -3.2,-8.64 q -0.12,-0.32 -0.4,-1.16 -0.28,-0.84 -0.56,-1.72 -0.24,-0.92 -0.4,-1.4 -0.32,1.24 -0.68,2.44 -0.32,1.16 -0.56,1.84 l -3.24,8.64 z"
         style=""
         id="path113" />
      <path
         d="m 1592.8433,-540.98358 h -10.32 v -2.08 l 3.36,-0.76 v -22.84 l -3.36,-0.8 v -2.08 h 10.32 v 2.08 l -3.36,0.8 v 22.84 l 3.36,0.76 z"
         style=""
         id="path115" />
      <path
         d="m 1606.4371,-540.98358 h -10.32 v -2.08 l 3.36,-0.76 v -22.84 l -3.36,-0.8 v -2.08 h 10.32 v 2.08 l -3.36,0.8 v 22.84 l 3.36,0.76 z"
         style=""
         id="path117" />
      <path
         d="m 1625.4708,-546.90358 q 0,3.12 -2.32,4.72 -2.32,1.6 -6.24,1.6 -2.24,0 -3.88,-0.36 -1.6,-0.36 -2.84,-1 v -3.2 q 1.28,0.64 3.08,1.2 1.84,0.52 3.72,0.52 2.68,0 3.88,-0.84 1.2,-0.88 1.2,-2.32 0,-0.8 -0.44,-1.44 -0.44,-0.64 -1.6,-1.28 -1.12,-0.64 -3.24,-1.44 -2.08,-0.8 -3.56,-1.6 -1.48,-0.8 -2.28,-1.92 -0.8,-1.12 -0.8,-2.88 0,-2.72 2.2,-4.2 2.24,-1.48 5.84,-1.48 1.96,0 3.64,0.4 1.72,0.4 3.2,1.04 l -1.2,2.8 q -1.36,-0.56 -2.84,-0.96 -1.48,-0.4 -3.04,-0.4 -2.16,0 -3.32,0.72 -1.12,0.68 -1.12,1.88 0,0.92 0.52,1.52 0.52,0.6 1.72,1.2 1.24,0.6 3.28,1.36 2.04,0.76 3.48,1.56 1.44,0.8 2.2,1.96 0.76,1.12 0.76,2.84 z"
         style=""
         id="path119" />
      <path
         d="m 1637.8115,-543.46358 q 0.8,0 1.64,-0.12 0.84,-0.12 1.36,-0.32 v 2.68 q -0.56,0.28 -1.6,0.44 -1.04,0.2 -2,0.2 -1.68,0 -3.12,-0.56 -1.4,-0.6 -2.28,-2.04 -0.88,-1.44 -0.88,-4.04 v -12.48 h -3.04 v -1.68 l 3.08,-1.4 1.4,-4.56 h 2.08 v 4.92 h 6.2 v 2.72 h -6.2 v 12.4 q 0,1.96 0.92,2.92 0.96,0.92 2.44,0.92 z"
         style=""
         id="path121" />
      <path
         d="m 1653.2246,-562.78358 q 3.92,0 5.8,1.72 1.88,1.72 1.88,5.48 v 14.6 h -2.56 l -0.68,-3.04 h -0.16 q -1.4,1.76 -2.96,2.6 -1.56,0.84 -4.24,0.84 -2.92,0 -4.84,-1.52 -1.92,-1.56 -1.92,-4.84 0,-3.2 2.52,-4.92 2.52,-1.76 7.76,-1.92 l 3.64,-0.12 v -1.28 q 0,-2.68 -1.16,-3.72 -1.16,-1.04 -3.28,-1.04 -1.68,0 -3.2,0.52 -1.52,0.48 -2.84,1.12 l -1.08,-2.64 q 1.4,-0.76 3.32,-1.28 1.92,-0.56 4,-0.56 z m 4.2,11.32 -3.16,0.12 q -4,0.16 -5.56,1.28 -1.52,1.12 -1.52,3.16 0,1.8 1.08,2.64 1.12,0.84 2.84,0.84 2.68,0 4.48,-1.48 1.84,-1.52 1.84,-4.64 z"
         style=""
         id="path123" />
      <path
         d="m 1677.8465,-562.82358 q 3.84,0 5.8,1.88 1.96,1.88 1.96,6 v 13.96 h -3.48 v -13.72 q 0,-5.16 -4.8,-5.16 -3.56,0 -4.92,2 -1.36,2 -1.36,5.76 v 11.12 h -3.52 v -21.44 h 2.84 l 0.52,2.92 h 0.2 q 1.04,-1.68 2.88,-2.48 1.84,-0.84 3.88,-0.84 z"
         style=""
         id="path125" />
      <path
         d="m 1695.734,-571.38358 v 7.4 q 0,1.36 -0.08,2.56 -0.04,1.16 -0.12,1.84 h 0.2 q 0.92,-1.36 2.52,-2.28 1.6,-0.92 4.12,-0.92 4,0 6.4,2.8 2.44,2.76 2.44,8.28 0,5.52 -2.44,8.32 -2.44,2.8 -6.4,2.8 -2.52,0 -4.12,-0.92 -1.6,-0.92 -2.52,-2.2 h -0.28 l -0.72,2.72 h -2.52 v -30.4 z m 6.04,11.52 q -3.44,0 -4.76,1.96 -1.28,1.96 -1.28,6.08 v 0.16 q 0,3.96 1.28,6.08 1.32,2.08 4.84,2.08 2.88,0 4.28,-2.12 1.44,-2.12 1.44,-6.12 0,-8.12 -5.8,-8.12 z"
         style=""
         id="path127" />
      <path
         d="m 1734.7433,-562.42358 v 21.44 h -2.88 l -0.52,-2.84 h -0.16 q -1.04,1.68 -2.88,2.48 -1.84,0.76 -3.92,0.76 -3.88,0 -5.84,-1.84 -1.96,-1.88 -1.96,-5.96 v -14.04 h 3.56 v 13.8 q 0,5.12 4.76,5.12 3.56,0 4.92,-2 1.4,-2 1.4,-5.76 v -11.16 z"
         style=""
         id="path129" />
      <path
         d="m 1745.0308,-540.98358 h -3.52 v -30.4 h 3.52 z"
         style=""
         id="path131" />
    </g>
    <g
       aria-label="# SWAIHongKong"
       style="font-style:normal;font-variant:normal;font-weight:normal;font-stretch:normal;font-size:40px;line-height:1.25;font-family:'Noto Sans';-inkscape-font-specification:'Noto Sans';letter-spacing:0px;word-spacing:0px;fill:#e8c034;fill-opacity:1;stroke:none"
       id="text112">
      <path
         d="m 803.27764,-441.3753 -1.24,6.4 h 5.48 v 2.68 h -6 l -1.64,8.36 h -2.84 l 1.64,-8.36 h -5.72 l -1.56,8.36 h -2.8 l 1.52,-8.36 h -5.04 v -2.68 h 5.56 l 1.28,-6.4 h -5.36 v -2.64 h 5.84 l 1.6,-8.48 h 2.88 l -1.6,8.48 h 5.76 l 1.6,-8.48 h 2.76 l -1.6,8.48 h 5.08 v 2.64 z m -9.8,6.4 h 5.72 l 1.24,-6.4 h -5.72 z"
         style=""
         id="path80" />
      <path
         d="m 840.40764,-431.5753 q 0,3.8 -2.76,5.92 -2.76,2.12 -7.44,2.12 -2.4,0 -4.44,-0.36 -2.04,-0.36 -3.4,-1 v -3.44 q 1.44,0.64 3.56,1.16 2.16,0.52 4.44,0.52 3.16,0 4.8,-1.24 1.64,-1.24 1.64,-3.36 0,-1.4 -0.6,-2.36 -0.6,-0.96 -2.08,-1.76 -1.48,-0.8 -4.04,-1.76 -3.68,-1.32 -5.52,-3.24 -1.84,-1.92 -1.84,-5.24 0,-2.24 1.16,-3.88 1.16,-1.64 3.2,-2.52 2.04,-0.88 4.76,-0.88 2.32,0 4.28,0.44 1.96,0.44 3.6,1.16 l -1.12,3.08 q -1.48,-0.64 -3.24,-1.08 -1.76,-0.44 -3.6,-0.44 -2.68,0 -4.04,1.16 -1.36,1.12 -1.36,3 0,1.44 0.6,2.4 0.6,0.96 1.96,1.76 1.36,0.76 3.68,1.6 2.52,0.92 4.24,2 1.76,1.04 2.64,2.52 0.92,1.48 0.92,3.72 z"
         style=""
         id="path82" />
      <path
         d="m 878.96076,-452.4953 -7.6,28.56 h -3.64 l -5.56,-18.72 q -0.36,-1.12 -0.68,-2.28 -0.28,-1.2 -0.52,-2.08 -0.2,-0.92 -0.24,-1.28 -0.04,0.52 -0.44,2.24 -0.4,1.68 -0.92,3.52 l -5.4,18.6 h -3.64 l -7.56,-28.56 h 3.76 l 4.44,17.44 q 0.48,1.84 0.8,3.56 0.36,1.72 0.56,3.24 0.2,-1.56 0.6,-3.4 0.4,-1.84 0.92,-3.6 l 5.04,-17.24 h 3.72 l 5.24,17.36 q 0.56,1.84 0.96,3.68 0.4,1.84 0.6,3.2 0.16,-1.48 0.52,-3.2 0.4,-1.76 0.88,-3.64 l 4.4,-17.4 z"
         style=""
         id="path84" />
      <path
         d="m 899.70576,-423.9353 -3.44,-8.84 h -11.32 l -3.4,8.84 h -3.64 l 11.16,-28.68 h 3.24 l 11.12,28.68 z m -4.52,-12.04 -3.2,-8.64 q -0.12,-0.32 -0.4,-1.16 -0.28,-0.84 -0.56,-1.72 -0.24,-0.92 -0.4,-1.4 -0.32,1.24 -0.68,2.44 -0.32,1.16 -0.56,1.84 l -3.24,8.64 z"
         style=""
         id="path86" />
      <path
         d="m 915.37264,-423.9353 h -10.32 v -2.08 l 3.36,-0.76 v -22.84 l -3.36,-0.8 v -2.08 h 10.32 v 2.08 l -3.36,0.8 v 22.84 l 3.36,0.76 z"
         style=""
         id="path88" />
      <path
         d="m 942.76639,-423.9353 h -3.6 v -13.32 h -14.64 v 13.32 h -3.6 v -28.56 h 3.6 v 12.08 h 14.64 v -12.08 h 3.6 z"
         style=""
         id="path90" />
      <path
         d="m 968.69576,-434.6953 q 0,5.32 -2.72,8.24 -2.68,2.92 -7.28,2.92 -2.84,0 -5.08,-1.28 -2.2,-1.32 -3.48,-3.8 -1.28,-2.52 -1.28,-6.08 0,-5.32 2.64,-8.2 2.68,-2.88 7.32,-2.88 2.88,0 5.12,1.32 2.24,1.28 3.48,3.76 1.28,2.44 1.28,6 z m -16.2,0 q 0,3.8 1.48,6.04 1.52,2.2 4.8,2.2 3.24,0 4.76,-2.2 1.52,-2.24 1.52,-6.04 0,-3.8 -1.52,-5.96 -1.52,-2.16 -4.8,-2.16 -3.28,0 -4.76,2.16 -1.48,2.16 -1.48,5.96 z"
         style=""
         id="path92" />
      <path
         d="m 984.59451,-445.7753 q 3.84,0 5.8,1.88 1.96,1.88 1.96,6 v 13.96 h -3.48 v -13.72 q 0,-5.16 -4.8,-5.16 -3.56,0 -4.92,2 -1.36,2 -1.36,5.76 v 11.12 h -3.52 v -21.44 h 2.84 l 0.52,2.92 h 0.2 q 1.04,-1.68 2.88,-2.48 1.84,-0.84 3.88,-0.84 z"
         style=""
         id="path94" />
      <path
         d="m 1006.562,-445.7753 q 2.12,0 3.8,0.8 1.72,0.8 2.92,2.44 h 0.2 l 0.48,-2.84 h 2.8 v 21.8 q 0,4.6 -2.36,6.92 -2.32,2.32 -7.24,2.32 -4.72,0 -7.71999,-1.36 v -3.24 q 3.15999,1.68 7.91999,1.68 2.76,0 4.32,-1.64 1.6,-1.6 1.6,-4.4 v -0.84 q 0,-0.48 0.04,-1.36 0.04,-0.92 0.08,-1.28 h -0.16 q -2.16,3.24 -6.64,3.24 -4.16,0 -6.52,-2.92 -2.31999,-2.92 -2.31999,-8.16 0,-5.12 2.31999,-8.12 2.36,-3.04 6.48,-3.04 z m 0.48,2.96 q -2.68,0 -4.16,2.16 -1.48,2.12 -1.48,6.08 0,3.96 1.44,6.08 1.44,2.08 4.28,2.08 3.24,0 4.72,-1.72 1.48,-1.76 1.48,-5.64 v -0.84 q 0,-4.36 -1.52,-6.28 -1.52,-1.92 -4.76,-1.92 z"
         style=""
         id="path96" />
      <path
         d="m 1044.9314,-423.9353 h -4.24 l -10.12,-13.64 -2.92,2.56 v 11.08 h -3.6 v -28.56 h 3.6 v 14.08 q 1.2,-1.36 2.44,-2.72 1.24,-1.36 2.48,-2.72 l 7.72,-8.64 h 4.2 l -11.32,12.44 z"
         style=""
         id="path98" />
      <path
         d="m 1066.977,-434.6953 q 0,5.32 -2.72,8.24 -2.68,2.92 -7.28,2.92 -2.84,0 -5.08,-1.28 -2.2,-1.32 -3.48,-3.8 -1.28,-2.52 -1.28,-6.08 0,-5.32 2.64,-8.2 2.68,-2.88 7.32,-2.88 2.88,0 5.12,1.32 2.24,1.28 3.48,3.76 1.28,2.44 1.28,6 z m -16.2,0 q 0,3.8 1.48,6.04 1.52,2.2 4.8,2.2 3.24,0 4.76,-2.2 1.52,-2.24 1.52,-6.04 0,-3.8 -1.52,-5.96 -1.52,-2.16 -4.8,-2.16 -3.28,0 -4.76,2.16 -1.48,2.16 -1.48,5.96 z"
         style=""
         id="path100" />
      <path
         d="m 1082.8758,-445.7753 q 3.84,0 5.8,1.88 1.96,1.88 1.96,6 v 13.96 h -3.48 v -13.72 q 0,-5.16 -4.8,-5.16 -3.56,0 -4.92,2 -1.36,2 -1.36,5.76 v 11.12 h -3.52 v -21.44 h 2.84 l 0.52,2.92 h 0.2 q 1.04,-1.68 2.88,-2.48 1.84,-0.84 3.88,-0.84 z"
         style=""
         id="path102" />
      <path
         d="m 1104.8433,-445.7753 q 2.12,0 3.8,0.8 1.72,0.8 2.92,2.44 h 0.2 l 0.48,-2.84 h 2.8 v 21.8 q 0,4.6 -2.36,6.92 -2.32,2.32 -7.24,2.32 -4.72,0 -7.72,-1.36 v -3.24 q 3.16,1.68 7.92,1.68 2.76,0 4.32,-1.64 1.6,-1.6 1.6,-4.4 v -0.84 q 0,-0.48 0.04,-1.36 0.04,-0.92 0.08,-1.28 h -0.16 q -2.16,3.24 -6.64,3.24 -4.16,0 -6.52,-2.92 -2.32,-2.92 -2.32,-8.16 0,-5.12 2.32,-8.12 2.36,-3.04 6.48,-3.04 z m 0.48,2.96 q -2.68,0 -4.16,2.16 -1.48,2.12 -1.48,6.08 0,3.96 1.44,6.08 1.44,2.08 4.28,2.08 3.24,0 4.72,-1.72 1.48,-1.76 1.48,-5.64 v -0.84 q 0,-4.36 -1.52,-6.28 -1.52,-1.92 -4.76,-1.92 z"
         style=""
         id="path104" />
    </g>
    <g
       aria-label="# SWAITaipei"
       style="font-style:normal;font-variant:normal;font-weight:normal;font-stretch:normal;font-size:40px;line-height:1.25;font-family:'Noto Sans';-inkscape-font-specification:'Noto Sans';letter-spacing:0px;word-spacing:0px;fill:#e8c034;fill-opacity:1;stroke:none"
       id="text116">
      <path
         d="m 1834.913,-563.48358 -1.24,6.4 h 5.48 v 2.68 h -6 l -1.64,8.36 h -2.84 l 1.64,-8.36 h -5.72 l -1.56,8.36 h -2.8 l 1.52,-8.36 h -5.04 v -2.68 h 5.56 l 1.28,-6.4 h -5.36 v -2.64 h 5.84 l 1.6,-8.48 h 2.88 l -1.6,8.48 h 5.76 l 1.6,-8.48 h 2.76 l -1.6,8.48 h 5.08 v 2.64 z m -9.8,6.4 h 5.72 l 1.24,-6.4 h -5.72 z"
         style=""
         id="path57" />
      <path
         d="m 1872.043,-553.68358 q 0,3.8 -2.76,5.92 -2.76,2.12 -7.44,2.12 -2.4,0 -4.44,-0.36 -2.04,-0.36 -3.4,-1 v -3.44 q 1.44,0.64 3.56,1.16 2.16,0.52 4.44,0.52 3.16,0 4.8,-1.24 1.64,-1.24 1.64,-3.36 0,-1.4 -0.6,-2.36 -0.6,-0.96 -2.08,-1.76 -1.48,-0.8 -4.04,-1.76 -3.68,-1.32 -5.52,-3.24 -1.84,-1.92 -1.84,-5.24 0,-2.24 1.16,-3.88 1.16,-1.64 3.2,-2.52 2.04,-0.88 4.76,-0.88 2.32,0 4.28,0.44 1.96,0.44 3.6,1.16 l -1.12,3.08 q -1.48,-0.64 -3.24,-1.08 -1.76,-0.44 -3.6,-0.44 -2.68,0 -4.04,1.16 -1.36,1.12 -1.36,3 0,1.44 0.6,2.4 0.6,0.96 1.96,1.76 1.36,0.76 3.68,1.6 2.52,0.92 4.24,2 1.76,1.04 2.64,2.52 0.92,1.48 0.92,3.72 z"
         style=""
         id="path59" />
      <path
         d="m 1910.5961,-574.60358 -7.6,28.56 h -3.64 l -5.56,-18.72 q -0.36,-1.12 -0.68,-2.28 -0.28,-1.2 -0.52,-2.08 -0.2,-0.92 -0.24,-1.28 -0.04,0.52 -0.44,2.24 -0.4,1.68 -0.92,3.52 l -5.4,18.6 h -3.64 l -7.56,-28.56 h 3.76 l 4.44,17.44 q 0.48,1.84 0.8,3.56 0.36,1.72 0.56,3.24 0.2,-1.56 0.6,-3.4 0.4,-1.84 0.92,-3.6 l 5.04,-17.24 h 3.72 l 5.24,17.36 q 0.56,1.84 0.96,3.68 0.4,1.84 0.6,3.2 0.16,-1.48 0.52,-3.2 0.4,-1.76 0.88,-3.64 l 4.4,-17.4 z"
         style=""
         id="path61" />
      <path
         d="m 1931.3411,-546.04358 -3.44,-8.84 h -11.32 l -3.4,8.84 h -3.64 l 11.16,-28.68 h 3.24 l 11.12,28.68 z m -4.52,-12.04 -3.2,-8.64 q -0.12,-0.32 -0.4,-1.16 -0.28,-0.84 -0.56,-1.72 -0.24,-0.92 -0.4,-1.4 -0.32,1.24 -0.68,2.44 -0.32,1.16 -0.56,1.84 l -3.24,8.64 z"
         style=""
         id="path63" />
      <path
         d="m 1947.008,-546.04358 h -10.32 v -2.08 l 3.36,-0.76 v -22.84 l -3.36,-0.8 v -2.08 h 10.32 v 2.08 l -3.36,0.8 v 22.84 l 3.36,0.76 z"
         style=""
         id="path65" />
      <path
         d="m 1961.6018,-546.04358 h -3.6 v -25.4 h -8.92 v -3.16 h 21.4 v 3.16 h -8.88 z"
         style=""
         id="path67" />
      <path
         d="m 1979.2643,-567.84358 q 3.92,0 5.8,1.72 1.88,1.72 1.88,5.48 v 14.6 h -2.56 l -0.68,-3.04 h -0.16 q -1.4,1.76 -2.96,2.6 -1.56,0.84 -4.24,0.84 -2.92,0 -4.84,-1.52 -1.92,-1.56 -1.92,-4.84 0,-3.2 2.52,-4.92 2.52,-1.76 7.76,-1.92 l 3.64,-0.12 v -1.28 q 0,-2.68 -1.16,-3.72 -1.16,-1.04 -3.28,-1.04 -1.68,0 -3.2,0.52 -1.52,0.48 -2.84,1.12 l -1.08,-2.64 q 1.4,-0.76 3.32,-1.28 1.92,-0.56 4,-0.56 z m 4.2,11.32 -3.16,0.12 q -4,0.16 -5.56,1.28 -1.52,1.12 -1.52,3.16 0,1.8 1.08,2.64 1.12,0.84 2.84,0.84 2.68,0 4.48,-1.48 1.84,-1.52 1.84,-4.64 z"
         style=""
         id="path69" />
      <path
         d="m 1995.3661,-575.52358 q 0.8,0 1.4,0.56 0.64,0.52 0.64,1.68 0,1.16 -0.64,1.72 -0.6,0.52 -1.4,0.52 -0.88,0 -1.48,-0.52 -0.6,-0.56 -0.6,-1.72 0,-1.16 0.6,-1.68 0.6,-0.56 1.48,-0.56 z m 1.72,8.04 v 21.44 h -3.52 v -21.44 z"
         style=""
         id="path71" />
      <path
         d="m 2014.0786,-567.88358 q 3.96,0 6.36,2.76 2.44,2.76 2.44,8.32 0,5.48 -2.44,8.32 -2.4,2.84 -6.4,2.84 -2.48,0 -4.12,-0.92 -1.6,-0.92 -2.52,-2.2 h -0.24 q 0.04,0.68 0.12,1.72 0.12,1.04 0.12,1.8 v 8.8 h -3.52 v -31.04 h 2.88 l 0.48,2.92 h 0.16 q 0.96,-1.4 2.52,-2.36 1.56,-0.96 4.16,-0.96 z m -0.64,2.96 q -3.28,0 -4.64,1.84 -1.36,1.84 -1.4,5.6 v 0.68 q 0,3.96 1.28,6.12 1.32,2.12 4.84,2.12 1.92,0 3.2,-1.04 1.28,-1.08 1.88,-2.96 0.64,-1.88 0.64,-4.28 0,-3.68 -1.44,-5.88 -1.4,-2.2 -4.36,-2.2 z"
         style=""
         id="path73" />
      <path
         d="m 2036.768,-567.88358 q 2.72,0 4.72,1.2 2,1.2 3.04,3.4 1.08,2.16 1.08,5.08 v 2.12 h -14.68 q 0.08,3.64 1.84,5.56 1.8,1.88 5,1.88 2.04,0 3.6,-0.36 1.6,-0.4 3.28,-1.12 v 3.08 q -1.64,0.72 -3.24,1.04 -1.6,0.36 -3.8,0.36 -3.08,0 -5.4,-1.24 -2.32,-1.24 -3.64,-3.68 -1.28,-2.44 -1.28,-6.04 0,-3.52 1.16,-6.04 1.2,-2.52 3.32,-3.88 2.16,-1.36 5,-1.36 z m -0.04,2.88 q -2.52,0 -4,1.64 -1.44,1.6 -1.72,4.48 h 10.92 q -0.04,-2.72 -1.28,-4.4 -1.24,-1.72 -3.92,-1.72 z"
         style=""
         id="path75" />
      <path
         d="m 2052.8661,-575.52358 q 0.8,0 1.4,0.56 0.64,0.52 0.64,1.68 0,1.16 -0.64,1.72 -0.6,0.52 -1.4,0.52 -0.88,0 -1.48,-0.52 -0.6,-0.56 -0.6,-1.72 0,-1.16 0.6,-1.68 0.6,-0.56 1.48,-0.56 z m 1.72,8.04 v 21.44 h -3.52 v -21.44 z"
         style=""
         id="path77" />
    </g>
    <g
       aria-label="# SWAISyndey"
       style="font-style:normal;font-variant:normal;font-weight:normal;font-stretch:normal;font-size:40px;line-height:1.25;font-family:'Noto Sans';-inkscape-font-specification:'Noto Sans';letter-spacing:0px;word-spacing:0px;fill:#e8c034;fill-opacity:1;stroke:none"
       id="text120">
      <path
         d="m 1571.6476,-497.06149 -1.24,6.4 h 5.48 v 2.68 h -6 l -1.64,8.36 h -2.84 l 1.64,-8.36 h -5.72 l -1.56,8.36 h -2.8 l 1.52,-8.36 h -5.04 v -2.68 h 5.56 l 1.28,-6.4 h -5.36 v -2.64 h 5.84 l 1.6,-8.48 h 2.88 l -1.6,8.48 h 5.76 l 1.6,-8.48 h 2.76 l -1.6,8.48 h 5.08 v 2.64 z m -9.8,6.4 h 5.72 l 1.24,-6.4 h -5.72 z"
         style=""
         id="path34" />
      <path
         d="m 1608.7776,-487.26149 q 0,3.8 -2.76,5.92 -2.76,2.12 -7.44,2.12 -2.4,0 -4.44,-0.36 -2.04,-0.36 -3.4,-1 v -3.44 q 1.44,0.64 3.56,1.16 2.16,0.52 4.44,0.52 3.16,0 4.8,-1.24 1.64,-1.24 1.64,-3.36 0,-1.4 -0.6,-2.36 -0.6,-0.96 -2.08,-1.76 -1.48,-0.8 -4.04,-1.76 -3.68,-1.32 -5.52,-3.24 -1.84,-1.92 -1.84,-5.24 0,-2.24 1.16,-3.88 1.16,-1.64 3.2,-2.52 2.04,-0.88 4.76,-0.88 2.32,0 4.28,0.44 1.96,0.44 3.6,1.16 l -1.12,3.08 q -1.48,-0.64 -3.24,-1.08 -1.76,-0.44 -3.6,-0.44 -2.68,0 -4.04,1.16 -1.36,1.12 -1.36,3 0,1.44 0.6,2.4 0.6,0.96 1.96,1.76 1.36,0.76 3.68,1.6 2.52,0.92 4.24,2 1.76,1.04 2.64,2.52 0.92,1.48 0.92,3.72 z"
         style=""
         id="path36" />
      <path
         d="m 1647.3308,-508.18149 -7.6,28.56 h -3.64 l -5.56,-18.72 q -0.36,-1.12 -0.68,-2.28 -0.28,-1.2 -0.52,-2.08 -0.2,-0.92 -0.24,-1.28 -0.04,0.52 -0.44,2.24 -0.4,1.68 -0.92,3.52 l -5.4,18.6 h -3.64 l -7.56,-28.56 h 3.76 l 4.44,17.44 q 0.48,1.84 0.8,3.56 0.36,1.72 0.56,3.24 0.2,-1.56 0.6,-3.4 0.4,-1.84 0.92,-3.6 l 5.04,-17.24 h 3.72 l 5.24,17.36 q 0.56,1.84 0.96,3.68 0.4,1.84 0.6,3.2 0.16,-1.48 0.52,-3.2 0.4,-1.76 0.88,-3.64 l 4.4,-17.4 z"
         style=""
         id="path38" />
      <path
         d="m 1668.0758,-479.62149 -3.44,-8.84 h -11.32 l -3.4,8.84 h -3.64 l 11.16,-28.68 h 3.24 l 11.12,28.68 z m -4.52,-12.04 -3.2,-8.64 q -0.12,-0.32 -0.4,-1.16 -0.28,-0.84 -0.56,-1.72 -0.24,-0.92 -0.4,-1.4 -0.32,1.24 -0.68,2.44 -0.32,1.16 -0.56,1.84 l -3.24,8.64 z"
         style=""
         id="path40" />
      <path
         d="m 1683.7426,-479.62149 h -10.32 v -2.08 l 3.36,-0.76 v -22.84 l -3.36,-0.8 v -2.08 h 10.32 v 2.08 l -3.36,0.8 v 22.84 l 3.36,0.76 z"
         style=""
         id="path42" />
      <path
         d="m 1705.4964,-487.26149 q 0,3.8 -2.76,5.92 -2.76,2.12 -7.44,2.12 -2.4,0 -4.44,-0.36 -2.04,-0.36 -3.4,-1 v -3.44 q 1.44,0.64 3.56,1.16 2.16,0.52 4.44,0.52 3.16,0 4.8,-1.24 1.64,-1.24 1.64,-3.36 0,-1.4 -0.6,-2.36 -0.6,-0.96 -2.08,-1.76 -1.48,-0.8 -4.04,-1.76 -3.68,-1.32 -5.52,-3.24 -1.84,-1.92 -1.84,-5.24 0,-2.24 1.16,-3.88 1.16,-1.64 3.2,-2.52 2.04,-0.88 4.76,-0.88 2.32,0 4.28,0.44 1.96,0.44 3.6,1.16 l -1.12,3.08 q -1.48,-0.64 -3.24,-1.08 -1.76,-0.44 -3.6,-0.44 -2.68,0 -4.04,1.16 -1.36,1.12 -1.36,3 0,1.44 0.6,2.4 0.6,0.96 1.96,1.76 1.36,0.76 3.68,1.6 2.52,0.92 4.24,2 1.76,1.04 2.64,2.52 0.92,1.48 0.92,3.72 z"
         style=""
         id="path44" />
      <path
         d="m 1707.4095,-501.06149 h 3.76 l 4.64,12.2 q 0.6,1.64 1.08,3.08 0.48,1.44 0.72,2.76 h 0.16 q 0.24,-1 0.76,-2.6 0.52,-1.64 1.08,-3.28 l 4.36,-12.16 h 3.8 l -9.24,24.4 q -1.16,3.04 -2.92,4.84 -1.76,1.8 -4.88,1.8 -0.96,0 -1.68,-0.12 -0.72,-0.08 -1.24,-0.2 v -2.8 q 0.44,0.08 1.04,0.16 0.64,0.08 1.32,0.08 1.84,0 2.96,-1.04 1.12,-1.04 1.8,-2.76 l 1.12,-2.84 z"
         style=""
         id="path46" />
      <path
         d="m 1741.4801,-501.46149 q 3.84,0 5.8,1.88 1.96,1.88 1.96,6 v 13.96 h -3.48 v -13.72 q 0,-5.16 -4.8,-5.16 -3.56,0 -4.92,2 -1.36,2 -1.36,5.76 v 11.12 h -3.52 v -21.44 h 2.84 l 0.52,2.92 h 0.2 q 1.04,-1.68 2.88,-2.48 1.84,-0.84 3.88,-0.84 z"
         style=""
         id="path48" />
      <path
         d="m 1763.4476,-479.22149 q -4,0 -6.4,-2.76 -2.4,-2.8 -2.4,-8.32 0,-5.52 2.4,-8.32 2.44,-2.84 6.44,-2.84 2.48,0 4.04,0.92 1.6,0.92 2.6,2.24 h 0.24 q -0.08,-0.52 -0.16,-1.52 -0.08,-1.04 -0.08,-1.64 v -8.56 h 3.52 v 30.4 h -2.84 l -0.52,-2.88 h -0.16 q -0.96,1.36 -2.56,2.32 -1.6,0.96 -4.12,0.96 z m 0.56,-2.92 q 3.4,0 4.76,-1.84 1.4,-1.88 1.4,-5.64 v -0.64 q 0,-4 -1.32,-6.12 -1.32,-2.16 -4.88,-2.16 -2.84,0 -4.28,2.28 -1.4,2.24 -1.4,6.04 0,3.84 1.4,5.96 1.44,2.12 4.32,2.12 z"
         style=""
         id="path50" />
      <path
         d="m 1788.737,-501.46149 q 2.72,0 4.72,1.2 2,1.2 3.04,3.4 1.08,2.16 1.08,5.08 v 2.12 h -14.68 q 0.08,3.64 1.84,5.56 1.8,1.88 5,1.88 2.04,0 3.6,-0.36 1.6,-0.4 3.28,-1.12 v 3.08 q -1.64,0.72 -3.24,1.04 -1.6,0.36 -3.8,0.36 -3.08,0 -5.4,-1.24 -2.32,-1.24 -3.64,-3.68 -1.28,-2.44 -1.28,-6.04 0,-3.52 1.16,-6.04 1.2,-2.52 3.32,-3.88 2.16,-1.36 5,-1.36 z m -0.04,2.88 q -2.52,0 -4,1.64 -1.44,1.6 -1.72,4.48 h 10.92 q -0.04,-2.72 -1.28,-4.4 -1.24,-1.72 -3.92,-1.72 z"
         style=""
         id="path52" />
      <path
         d="m 1798.8939,-501.06149 h 3.76 l 4.64,12.2 q 0.6,1.64 1.08,3.08 0.48,1.44 0.72,2.76 h 0.16 q 0.24,-1 0.76,-2.6 0.52,-1.64 1.08,-3.28 l 4.36,-12.16 h 3.8 l -9.24,24.4 q -1.16,3.04 -2.92,4.84 -1.76,1.8 -4.88,1.8 -0.96,0 -1.68,-0.12 -0.72,-0.08 -1.24,-0.2 v -2.8 q 0.44,0.08 1.04,0.16 0.64,0.08 1.32,0.08 1.84,0 2.96,-1.04 1.12,-1.04 1.8,-2.76 l 1.12,-2.84 z"
         style=""
         id="path54" />
    </g>
  </g>
</svg>
